<svg width="1147" height="440" viewBox="0 0 1147 440" fill="none" xmlns="http://www.w3.org/2000/svg">
<path d="M237.992 131.736V142.031H197.059V131.736H237.992ZM223.145 115.535V159.012H211.947V115.535H223.145ZM285.488 155.771V165H244.637V157.125L263.955 136.412C265.896 134.252 267.428 132.352 268.549 130.711C269.67 129.043 270.477 127.553 270.969 126.24C271.488 124.9 271.748 123.629 271.748 122.426C271.748 120.621 271.447 119.076 270.846 117.791C270.244 116.479 269.355 115.467 268.18 114.756C267.031 114.045 265.609 113.689 263.914 113.689C262.109 113.689 260.551 114.127 259.238 115.002C257.953 115.877 256.969 117.094 256.285 118.652C255.629 120.211 255.301 121.975 255.301 123.943H243.447C243.447 120.389 244.295 117.135 245.99 114.182C247.686 111.201 250.078 108.836 253.168 107.086C256.258 105.309 259.922 104.42 264.16 104.42C268.344 104.42 271.871 105.104 274.742 106.471C277.641 107.811 279.828 109.752 281.305 112.295C282.809 114.811 283.561 117.818 283.561 121.318C283.561 123.287 283.246 125.215 282.617 127.102C281.988 128.961 281.086 130.82 279.91 132.68C278.762 134.512 277.367 136.371 275.727 138.258C274.086 140.145 272.268 142.1 270.271 144.123L259.895 155.771H285.488ZM333.066 129.891V140.227C333.066 144.711 332.588 148.58 331.631 151.834C330.674 155.061 329.293 157.713 327.488 159.791C325.711 161.842 323.592 163.359 321.131 164.344C318.67 165.328 315.936 165.82 312.928 165.82C310.521 165.82 308.279 165.52 306.201 164.918C304.123 164.289 302.25 163.318 300.582 162.006C298.941 160.693 297.52 159.039 296.316 157.043C295.141 155.02 294.238 152.613 293.609 149.824C292.98 147.035 292.666 143.836 292.666 140.227V129.891C292.666 125.406 293.145 121.564 294.102 118.365C295.086 115.139 296.467 112.5 298.244 110.449C300.049 108.398 302.182 106.895 304.643 105.938C307.104 104.953 309.838 104.461 312.846 104.461C315.252 104.461 317.48 104.775 319.531 105.404C321.609 106.006 323.482 106.949 325.15 108.234C326.818 109.52 328.24 111.174 329.416 113.197C330.592 115.193 331.494 117.586 332.123 120.375C332.752 123.137 333.066 126.309 333.066 129.891ZM321.213 141.785V128.291C321.213 126.131 321.09 124.244 320.844 122.631C320.625 121.018 320.283 119.65 319.818 118.529C319.354 117.381 318.779 116.451 318.096 115.74C317.412 115.029 316.633 114.51 315.758 114.182C314.883 113.854 313.912 113.689 312.846 113.689C311.506 113.689 310.316 113.949 309.277 114.469C308.266 114.988 307.404 115.822 306.693 116.971C305.982 118.092 305.436 119.596 305.053 121.482C304.697 123.342 304.52 125.611 304.52 128.291V141.785C304.52 143.945 304.629 145.846 304.848 147.486C305.094 149.127 305.449 150.535 305.914 151.711C306.406 152.859 306.98 153.803 307.637 154.541C308.32 155.252 309.1 155.771 309.975 156.1C310.877 156.428 311.861 156.592 312.928 156.592C314.24 156.592 315.402 156.332 316.414 155.812C317.453 155.266 318.328 154.418 319.039 153.27C319.777 152.094 320.324 150.562 320.68 148.676C321.035 146.789 321.213 144.492 321.213 141.785ZM381.301 129.891V140.227C381.301 144.711 380.822 148.58 379.865 151.834C378.908 155.061 377.527 157.713 375.723 159.791C373.945 161.842 371.826 163.359 369.365 164.344C366.904 165.328 364.17 165.82 361.162 165.82C358.756 165.82 356.514 165.52 354.436 164.918C352.357 164.289 350.484 163.318 348.816 162.006C347.176 160.693 345.754 159.039 344.551 157.043C343.375 155.02 342.473 152.613 341.844 149.824C341.215 147.035 340.9 143.836 340.9 140.227V129.891C340.9 125.406 341.379 121.564 342.336 118.365C343.32 115.139 344.701 112.5 346.479 110.449C348.283 108.398 350.416 106.895 352.877 105.938C355.338 104.953 358.072 104.461 361.08 104.461C363.486 104.461 365.715 104.775 367.766 105.404C369.844 106.006 371.717 106.949 373.385 108.234C375.053 109.52 376.475 111.174 377.65 113.197C378.826 115.193 379.729 117.586 380.357 120.375C380.986 123.137 381.301 126.309 381.301 129.891ZM369.447 141.785V128.291C369.447 126.131 369.324 124.244 369.078 122.631C368.859 121.018 368.518 119.65 368.053 118.529C367.588 117.381 367.014 116.451 366.33 115.74C365.646 115.029 364.867 114.51 363.992 114.182C363.117 113.854 362.146 113.689 361.08 113.689C359.74 113.689 358.551 113.949 357.512 114.469C356.5 114.988 355.639 115.822 354.928 116.971C354.217 118.092 353.67 119.596 353.287 121.482C352.932 123.342 352.754 125.611 352.754 128.291V141.785C352.754 143.945 352.863 145.846 353.082 147.486C353.328 149.127 353.684 150.535 354.148 151.711C354.641 152.859 355.215 153.803 355.871 154.541C356.555 155.252 357.334 155.771 358.209 156.1C359.111 156.428 360.096 156.592 361.162 156.592C362.475 156.592 363.637 156.332 364.648 155.812C365.688 155.266 366.562 154.418 367.273 153.27C368.012 152.094 368.559 150.562 368.914 148.676C369.27 146.789 369.447 144.492 369.447 141.785Z" fill="black" fill-opacity="0.87"/>
<path fill-rule="evenodd" clip-rule="evenodd" d="M102.332 253C102.332 230.356 120.689 212 143.332 212H427.332L368.748 296H143.332C120.689 296 102.332 277.644 102.332 255V253Z" fill="#C8E6C9"/>
<path d="M194.395 257.34H199.645C199.371 259.855 198.651 262.107 197.484 264.094C196.318 266.081 194.668 267.658 192.535 268.824C190.402 269.973 187.741 270.547 184.551 270.547C182.217 270.547 180.094 270.109 178.18 269.234C176.284 268.359 174.652 267.12 173.285 265.516C171.918 263.893 170.861 261.952 170.113 259.691C169.384 257.413 169.02 254.879 169.02 252.09V248.125C169.02 245.336 169.384 242.811 170.113 240.551C170.861 238.272 171.927 236.322 173.312 234.699C174.716 233.077 176.402 231.828 178.371 230.953C180.34 230.078 182.555 229.641 185.016 229.641C188.023 229.641 190.566 230.206 192.645 231.336C194.723 232.466 196.336 234.034 197.484 236.039C198.651 238.026 199.371 240.332 199.645 242.957H194.395C194.139 241.098 193.665 239.503 192.973 238.172C192.28 236.823 191.296 235.784 190.02 235.055C188.743 234.326 187.076 233.961 185.016 233.961C183.247 233.961 181.689 234.298 180.34 234.973C179.009 235.647 177.888 236.604 176.977 237.844C176.083 239.083 175.409 240.569 174.953 242.301C174.497 244.033 174.27 245.956 174.27 248.07V252.09C174.27 254.04 174.47 255.872 174.871 257.586C175.29 259.299 175.919 260.803 176.758 262.098C177.596 263.392 178.663 264.413 179.957 265.16C181.251 265.889 182.783 266.254 184.551 266.254C186.793 266.254 188.579 265.898 189.91 265.188C191.241 264.477 192.243 263.456 192.918 262.125C193.611 260.794 194.103 259.199 194.395 257.34ZM211.566 228V270H206.48V228H211.566ZM225.184 240.414V270H220.098V240.414H225.184ZM219.715 232.566C219.715 231.746 219.961 231.053 220.453 230.488C220.964 229.923 221.711 229.641 222.695 229.641C223.661 229.641 224.4 229.923 224.91 230.488C225.439 231.053 225.703 231.746 225.703 232.566C225.703 233.35 225.439 234.025 224.91 234.59C224.4 235.137 223.661 235.41 222.695 235.41C221.711 235.41 220.964 235.137 220.453 234.59C219.961 234.025 219.715 233.35 219.715 232.566ZM238.363 246.73V270H233.305V240.414H238.09L238.363 246.73ZM237.16 254.086L235.055 254.004C235.073 251.98 235.374 250.112 235.957 248.398C236.54 246.667 237.361 245.163 238.418 243.887C239.475 242.611 240.733 241.626 242.191 240.934C243.668 240.223 245.299 239.867 247.086 239.867C248.544 239.867 249.857 240.068 251.023 240.469C252.19 240.852 253.184 241.471 254.004 242.328C254.842 243.185 255.48 244.297 255.918 245.664C256.355 247.013 256.574 248.663 256.574 250.613V270H251.488V250.559C251.488 249.009 251.26 247.77 250.805 246.84C250.349 245.892 249.684 245.208 248.809 244.789C247.934 244.352 246.858 244.133 245.582 244.133C244.324 244.133 243.176 244.397 242.137 244.926C241.116 245.454 240.232 246.184 239.484 247.113C238.755 248.043 238.181 249.109 237.762 250.312C237.361 251.497 237.16 252.755 237.16 254.086ZM269.754 240.414V270H264.668V240.414H269.754ZM264.285 232.566C264.285 231.746 264.531 231.053 265.023 230.488C265.534 229.923 266.281 229.641 267.266 229.641C268.232 229.641 268.97 229.923 269.48 230.488C270.009 231.053 270.273 231.746 270.273 232.566C270.273 233.35 270.009 234.025 269.48 234.59C268.97 235.137 268.232 235.41 267.266 235.41C266.281 235.41 265.534 235.137 265.023 234.59C264.531 234.025 264.285 233.35 264.285 232.566ZM289.715 266.391C290.918 266.391 292.03 266.145 293.051 265.652C294.072 265.16 294.91 264.486 295.566 263.629C296.223 262.754 296.596 261.76 296.688 260.648H301.5C301.409 262.398 300.816 264.03 299.723 265.543C298.647 267.038 297.234 268.25 295.484 269.18C293.734 270.091 291.811 270.547 289.715 270.547C287.491 270.547 285.549 270.155 283.891 269.371C282.25 268.587 280.883 267.512 279.789 266.145C278.714 264.777 277.902 263.21 277.355 261.441C276.827 259.655 276.562 257.768 276.562 255.781V254.633C276.562 252.646 276.827 250.768 277.355 249C277.902 247.214 278.714 245.637 279.789 244.27C280.883 242.902 282.25 241.827 283.891 241.043C285.549 240.259 287.491 239.867 289.715 239.867C292.03 239.867 294.053 240.341 295.785 241.289C297.517 242.219 298.875 243.495 299.859 245.117C300.862 246.721 301.409 248.544 301.5 250.586H296.688C296.596 249.365 296.25 248.262 295.648 247.277C295.065 246.293 294.263 245.509 293.242 244.926C292.24 244.324 291.064 244.023 289.715 244.023C288.165 244.023 286.862 244.333 285.805 244.953C284.766 245.555 283.936 246.375 283.316 247.414C282.715 248.435 282.277 249.574 282.004 250.832C281.749 252.072 281.621 253.339 281.621 254.633V255.781C281.621 257.076 281.749 258.352 282.004 259.609C282.259 260.867 282.688 262.007 283.289 263.027C283.909 264.048 284.738 264.868 285.777 265.488C286.835 266.09 288.147 266.391 289.715 266.391ZM324.414 262.152C324.414 261.423 324.25 260.749 323.922 260.129C323.612 259.491 322.965 258.917 321.98 258.406C321.014 257.878 319.556 257.422 317.605 257.039C315.965 256.693 314.479 256.283 313.148 255.809C311.836 255.335 310.715 254.76 309.785 254.086C308.874 253.411 308.172 252.618 307.68 251.707C307.188 250.796 306.941 249.729 306.941 248.508C306.941 247.341 307.197 246.238 307.707 245.199C308.236 244.16 308.974 243.24 309.922 242.438C310.888 241.635 312.046 241.007 313.395 240.551C314.743 240.095 316.247 239.867 317.906 239.867C320.276 239.867 322.299 240.286 323.977 241.125C325.654 241.964 326.939 243.085 327.832 244.488C328.725 245.874 329.172 247.414 329.172 249.109H324.113C324.113 248.289 323.867 247.496 323.375 246.73C322.901 245.947 322.199 245.299 321.27 244.789C320.358 244.279 319.237 244.023 317.906 244.023C316.503 244.023 315.363 244.242 314.488 244.68C313.632 245.099 313.003 245.637 312.602 246.293C312.219 246.949 312.027 247.642 312.027 248.371C312.027 248.918 312.118 249.41 312.301 249.848C312.501 250.267 312.848 250.659 313.34 251.023C313.832 251.37 314.525 251.698 315.418 252.008C316.311 252.318 317.451 252.628 318.836 252.938C321.26 253.484 323.257 254.141 324.824 254.906C326.392 255.672 327.559 256.611 328.324 257.723C329.09 258.835 329.473 260.184 329.473 261.77C329.473 263.064 329.199 264.249 328.652 265.324C328.124 266.4 327.349 267.329 326.328 268.113C325.326 268.879 324.122 269.48 322.719 269.918C321.333 270.337 319.775 270.547 318.043 270.547C315.436 270.547 313.23 270.082 311.426 269.152C309.621 268.223 308.254 267.02 307.324 265.543C306.395 264.066 305.93 262.508 305.93 260.867H311.016C311.089 262.253 311.49 263.355 312.219 264.176C312.948 264.978 313.841 265.552 314.898 265.898C315.956 266.227 317.004 266.391 318.043 266.391C319.428 266.391 320.586 266.208 321.516 265.844C322.464 265.479 323.184 264.978 323.676 264.34C324.168 263.702 324.414 262.973 324.414 262.152Z" fill="#2E7D32"/>
<path d="M528.25 69.25L303.75 388.75" stroke="#C8E6C9" stroke-width="3" stroke-linecap="square"/>
<path d="M617.992 131.736V142.031H577.059V131.736H617.992ZM603.145 115.535V159.012H591.947V115.535H603.145ZM666.473 142.688V151.957H623.447L622.873 144.779L647.77 105.281H657.162L646.99 122.303L634.604 142.688H666.473ZM659.705 105.281V165H647.893V105.281H659.705ZM683.986 137.807L674.553 135.551L677.957 105.281H711.508V114.838H687.678L686.201 128.086C686.994 127.621 688.197 127.129 689.811 126.609C691.424 126.062 693.229 125.789 695.225 125.789C698.123 125.789 700.693 126.24 702.936 127.143C705.178 128.045 707.078 129.357 708.637 131.08C710.223 132.803 711.426 134.908 712.246 137.396C713.066 139.885 713.477 142.701 713.477 145.846C713.477 148.498 713.066 151.027 712.246 153.434C711.426 155.812 710.182 157.945 708.514 159.832C706.846 161.691 704.754 163.154 702.238 164.221C699.723 165.287 696.742 165.82 693.297 165.82C690.727 165.82 688.238 165.438 685.832 164.672C683.453 163.906 681.307 162.771 679.393 161.268C677.506 159.764 675.988 157.945 674.84 155.812C673.719 153.652 673.131 151.191 673.076 148.43H684.807C684.971 150.125 685.408 151.588 686.119 152.818C686.857 154.021 687.828 154.951 689.031 155.607C690.234 156.264 691.643 156.592 693.256 156.592C694.76 156.592 696.045 156.305 697.111 155.73C698.178 155.156 699.039 154.363 699.695 153.352C700.352 152.312 700.83 151.109 701.131 149.742C701.459 148.348 701.623 146.844 701.623 145.23C701.623 143.617 701.432 142.154 701.049 140.842C700.666 139.529 700.078 138.395 699.285 137.438C698.492 136.48 697.48 135.742 696.25 135.223C695.047 134.703 693.639 134.443 692.025 134.443C689.838 134.443 688.143 134.785 686.939 135.469C685.764 136.152 684.779 136.932 683.986 137.807ZM761.301 129.891V140.227C761.301 144.711 760.822 148.58 759.865 151.834C758.908 155.061 757.527 157.713 755.723 159.791C753.945 161.842 751.826 163.359 749.365 164.344C746.904 165.328 744.17 165.82 741.162 165.82C738.756 165.82 736.514 165.52 734.436 164.918C732.357 164.289 730.484 163.318 728.816 162.006C727.176 160.693 725.754 159.039 724.551 157.043C723.375 155.02 722.473 152.613 721.844 149.824C721.215 147.035 720.9 143.836 720.9 140.227V129.891C720.9 125.406 721.379 121.564 722.336 118.365C723.32 115.139 724.701 112.5 726.479 110.449C728.283 108.398 730.416 106.895 732.877 105.938C735.338 104.953 738.072 104.461 741.08 104.461C743.486 104.461 745.715 104.775 747.766 105.404C749.844 106.006 751.717 106.949 753.385 108.234C755.053 109.52 756.475 111.174 757.65 113.197C758.826 115.193 759.729 117.586 760.357 120.375C760.986 123.137 761.301 126.309 761.301 129.891ZM749.447 141.785V128.291C749.447 126.131 749.324 124.244 749.078 122.631C748.859 121.018 748.518 119.65 748.053 118.529C747.588 117.381 747.014 116.451 746.33 115.74C745.646 115.029 744.867 114.51 743.992 114.182C743.117 113.854 742.146 113.689 741.08 113.689C739.74 113.689 738.551 113.949 737.512 114.469C736.5 114.988 735.639 115.822 734.928 116.971C734.217 118.092 733.67 119.596 733.287 121.482C732.932 123.342 732.754 125.611 732.754 128.291V141.785C732.754 143.945 732.863 145.846 733.082 147.486C733.328 149.127 733.684 150.535 734.148 151.711C734.641 152.859 735.215 153.803 735.871 154.541C736.555 155.252 737.334 155.771 738.209 156.1C739.111 156.428 740.096 156.592 741.162 156.592C742.475 156.592 743.637 156.332 744.648 155.812C745.688 155.266 746.562 154.418 747.273 153.27C748.012 152.094 748.559 150.562 748.914 148.676C749.27 146.789 749.447 144.492 749.447 141.785Z" fill="black" fill-opacity="0.87"/>
<path fill-rule="evenodd" clip-rule="evenodd" d="M482.332 253C482.332 230.356 500.689 212 523.332 212H807.332L748.748 296H523.332C500.689 296 482.332 277.644 482.332 255V253Z" fill="#C8E6C9"/>
<path d="M546.586 270H538.273L538.328 265.707H546.586C549.43 265.707 551.799 265.115 553.695 263.93C555.591 262.727 557.013 261.049 557.961 258.898C558.927 256.729 559.41 254.195 559.41 251.297V248.863C559.41 246.585 559.137 244.561 558.59 242.793C558.043 241.007 557.241 239.503 556.184 238.281C555.126 237.042 553.832 236.103 552.301 235.465C550.788 234.827 549.047 234.508 547.078 234.508H538.109V230.188H547.078C549.685 230.188 552.064 230.625 554.215 231.5C556.366 232.357 558.216 233.605 559.766 235.246C561.333 236.868 562.536 238.837 563.375 241.152C564.214 243.449 564.633 246.038 564.633 248.918V251.297C564.633 254.177 564.214 256.775 563.375 259.09C562.536 261.387 561.324 263.346 559.738 264.969C558.171 266.591 556.275 267.84 554.051 268.715C551.845 269.572 549.357 270 546.586 270ZM541.09 230.188V270H535.812V230.188H541.09ZM570.457 255.535V254.906C570.457 252.773 570.767 250.796 571.387 248.973C572.007 247.132 572.9 245.536 574.066 244.188C575.233 242.82 576.646 241.763 578.305 241.016C579.964 240.25 581.823 239.867 583.883 239.867C585.961 239.867 587.829 240.25 589.488 241.016C591.165 241.763 592.587 242.82 593.754 244.188C594.939 245.536 595.841 247.132 596.461 248.973C597.081 250.796 597.391 252.773 597.391 254.906V255.535C597.391 257.668 597.081 259.646 596.461 261.469C595.841 263.292 594.939 264.887 593.754 266.254C592.587 267.603 591.174 268.66 589.516 269.426C587.875 270.173 586.016 270.547 583.938 270.547C581.859 270.547 579.991 270.173 578.332 269.426C576.673 268.66 575.251 267.603 574.066 266.254C572.9 264.887 572.007 263.292 571.387 261.469C570.767 259.646 570.457 257.668 570.457 255.535ZM575.516 254.906V255.535C575.516 257.012 575.689 258.406 576.035 259.719C576.382 261.013 576.901 262.161 577.594 263.164C578.305 264.167 579.189 264.96 580.246 265.543C581.303 266.108 582.534 266.391 583.938 266.391C585.323 266.391 586.535 266.108 587.574 265.543C588.632 264.96 589.507 264.167 590.199 263.164C590.892 262.161 591.411 261.013 591.758 259.719C592.122 258.406 592.305 257.012 592.305 255.535V254.906C592.305 253.448 592.122 252.072 591.758 250.777C591.411 249.465 590.883 248.307 590.172 247.305C589.479 246.284 588.604 245.482 587.547 244.898C586.508 244.315 585.286 244.023 583.883 244.023C582.497 244.023 581.276 244.315 580.219 244.898C579.18 245.482 578.305 246.284 577.594 247.305C576.901 248.307 576.382 249.465 576.035 250.777C575.689 252.072 575.516 253.448 575.516 254.906ZM615.574 266.391C616.777 266.391 617.889 266.145 618.91 265.652C619.931 265.16 620.77 264.486 621.426 263.629C622.082 262.754 622.456 261.76 622.547 260.648H627.359C627.268 262.398 626.676 264.03 625.582 265.543C624.507 267.038 623.094 268.25 621.344 269.18C619.594 270.091 617.671 270.547 615.574 270.547C613.35 270.547 611.409 270.155 609.75 269.371C608.109 268.587 606.742 267.512 605.648 266.145C604.573 264.777 603.762 263.21 603.215 261.441C602.686 259.655 602.422 257.768 602.422 255.781V254.633C602.422 252.646 602.686 250.768 603.215 249C603.762 247.214 604.573 245.637 605.648 244.27C606.742 242.902 608.109 241.827 609.75 241.043C611.409 240.259 613.35 239.867 615.574 239.867C617.889 239.867 619.913 240.341 621.645 241.289C623.376 242.219 624.734 243.495 625.719 245.117C626.721 246.721 627.268 248.544 627.359 250.586H622.547C622.456 249.365 622.109 248.262 621.508 247.277C620.924 246.293 620.122 245.509 619.102 244.926C618.099 244.324 616.923 244.023 615.574 244.023C614.025 244.023 612.721 244.333 611.664 244.953C610.625 245.555 609.796 246.375 609.176 247.414C608.574 248.435 608.137 249.574 607.863 250.832C607.608 252.072 607.48 253.339 607.48 254.633V255.781C607.48 257.076 607.608 258.352 607.863 259.609C608.118 260.867 608.547 262.007 609.148 263.027C609.768 264.048 610.598 264.868 611.637 265.488C612.694 266.09 614.007 266.391 615.574 266.391ZM645.434 240.414V244.297H629.438V240.414H645.434ZM634.852 233.223H639.91V262.672C639.91 263.674 640.065 264.431 640.375 264.941C640.685 265.452 641.086 265.789 641.578 265.953C642.07 266.117 642.599 266.199 643.164 266.199C643.583 266.199 644.021 266.163 644.477 266.09C644.951 265.999 645.306 265.926 645.543 265.871L645.57 270C645.169 270.128 644.641 270.246 643.984 270.355C643.346 270.483 642.572 270.547 641.66 270.547C640.421 270.547 639.281 270.301 638.242 269.809C637.203 269.316 636.374 268.496 635.754 267.348C635.152 266.181 634.852 264.613 634.852 262.645V233.223ZM649.48 255.535V254.906C649.48 252.773 649.79 250.796 650.41 248.973C651.03 247.132 651.923 245.536 653.09 244.188C654.257 242.82 655.669 241.763 657.328 241.016C658.987 240.25 660.846 239.867 662.906 239.867C664.984 239.867 666.853 240.25 668.512 241.016C670.189 241.763 671.611 242.82 672.777 244.188C673.962 245.536 674.865 247.132 675.484 248.973C676.104 250.796 676.414 252.773 676.414 254.906V255.535C676.414 257.668 676.104 259.646 675.484 261.469C674.865 263.292 673.962 264.887 672.777 266.254C671.611 267.603 670.198 268.66 668.539 269.426C666.898 270.173 665.039 270.547 662.961 270.547C660.883 270.547 659.014 270.173 657.355 269.426C655.697 268.66 654.275 267.603 653.09 266.254C651.923 264.887 651.03 263.292 650.41 261.469C649.79 259.646 649.48 257.668 649.48 255.535ZM654.539 254.906V255.535C654.539 257.012 654.712 258.406 655.059 259.719C655.405 261.013 655.924 262.161 656.617 263.164C657.328 264.167 658.212 264.96 659.27 265.543C660.327 266.108 661.557 266.391 662.961 266.391C664.346 266.391 665.559 266.108 666.598 265.543C667.655 264.96 668.53 264.167 669.223 263.164C669.915 262.161 670.435 261.013 670.781 259.719C671.146 258.406 671.328 257.012 671.328 255.535V254.906C671.328 253.448 671.146 252.072 670.781 250.777C670.435 249.465 669.906 248.307 669.195 247.305C668.503 246.284 667.628 245.482 666.57 244.898C665.531 244.315 664.31 244.023 662.906 244.023C661.521 244.023 660.299 244.315 659.242 244.898C658.203 245.482 657.328 246.284 656.617 247.305C655.924 248.307 655.405 249.465 655.059 250.777C654.712 252.072 654.539 253.448 654.539 254.906ZM687.816 245.062V270H682.758V240.414H687.68L687.816 245.062ZM697.059 240.25L697.031 244.953C696.612 244.862 696.211 244.807 695.828 244.789C695.464 244.753 695.044 244.734 694.57 244.734C693.404 244.734 692.374 244.917 691.48 245.281C690.587 245.646 689.831 246.156 689.211 246.812C688.591 247.469 688.099 248.253 687.734 249.164C687.388 250.057 687.16 251.042 687.051 252.117L685.629 252.938C685.629 251.151 685.802 249.474 686.148 247.906C686.513 246.339 687.069 244.953 687.816 243.75C688.564 242.529 689.512 241.581 690.66 240.906C691.827 240.214 693.212 239.867 694.816 239.867C695.181 239.867 695.6 239.913 696.074 240.004C696.548 240.077 696.876 240.159 697.059 240.25ZM718.961 262.152C718.961 261.423 718.797 260.749 718.469 260.129C718.159 259.491 717.512 258.917 716.527 258.406C715.561 257.878 714.103 257.422 712.152 257.039C710.512 256.693 709.026 256.283 707.695 255.809C706.383 255.335 705.262 254.76 704.332 254.086C703.421 253.411 702.719 252.618 702.227 251.707C701.734 250.796 701.488 249.729 701.488 248.508C701.488 247.341 701.743 246.238 702.254 245.199C702.783 244.16 703.521 243.24 704.469 242.438C705.435 241.635 706.592 241.007 707.941 240.551C709.29 240.095 710.794 239.867 712.453 239.867C714.823 239.867 716.846 240.286 718.523 241.125C720.201 241.964 721.486 243.085 722.379 244.488C723.272 245.874 723.719 247.414 723.719 249.109H718.66C718.66 248.289 718.414 247.496 717.922 246.73C717.448 245.947 716.746 245.299 715.816 244.789C714.905 244.279 713.784 244.023 712.453 244.023C711.049 244.023 709.91 244.242 709.035 244.68C708.178 245.099 707.549 245.637 707.148 246.293C706.766 246.949 706.574 247.642 706.574 248.371C706.574 248.918 706.665 249.41 706.848 249.848C707.048 250.267 707.395 250.659 707.887 251.023C708.379 251.37 709.072 251.698 709.965 252.008C710.858 252.318 711.997 252.628 713.383 252.938C715.807 253.484 717.803 254.141 719.371 254.906C720.939 255.672 722.105 256.611 722.871 257.723C723.637 258.835 724.02 260.184 724.02 261.77C724.02 263.064 723.746 264.249 723.199 265.324C722.671 266.4 721.896 267.329 720.875 268.113C719.872 268.879 718.669 269.48 717.266 269.918C715.88 270.337 714.322 270.547 712.59 270.547C709.983 270.547 707.777 270.082 705.973 269.152C704.168 268.223 702.801 267.02 701.871 265.543C700.941 264.066 700.477 262.508 700.477 260.867H705.562C705.635 262.253 706.036 263.355 706.766 264.176C707.495 264.978 708.388 265.552 709.445 265.898C710.503 266.227 711.551 266.391 712.59 266.391C713.975 266.391 715.133 266.208 716.062 265.844C717.01 265.479 717.73 264.978 718.223 264.34C718.715 263.702 718.961 262.973 718.961 262.152Z" fill="#2E7D32"/>
<path d="M908.25 69.25L683.75 388.75" stroke="#C8E6C9" stroke-width="3" stroke-linecap="square"/>
<g clip-path="url(#clip0_0_401)">
<path d="M872.367 252.305V256.598H850.82V252.305H872.367ZM851.641 235.188V275H846.363V235.188H851.641ZM876.961 235.188V275H871.711V235.188H876.961ZM884.234 260.535V259.906C884.234 257.773 884.544 255.796 885.164 253.973C885.784 252.132 886.677 250.536 887.844 249.188C889.01 247.82 890.423 246.763 892.082 246.016C893.741 245.25 895.6 244.867 897.66 244.867C899.738 244.867 901.607 245.25 903.266 246.016C904.943 246.763 906.365 247.82 907.531 249.188C908.716 250.536 909.618 252.132 910.238 253.973C910.858 255.796 911.168 257.773 911.168 259.906V260.535C911.168 262.668 910.858 264.646 910.238 266.469C909.618 268.292 908.716 269.887 907.531 271.254C906.365 272.603 904.952 273.66 903.293 274.426C901.652 275.173 899.793 275.547 897.715 275.547C895.637 275.547 893.768 275.173 892.109 274.426C890.451 273.66 889.029 272.603 887.844 271.254C886.677 269.887 885.784 268.292 885.164 266.469C884.544 264.646 884.234 262.668 884.234 260.535ZM889.293 259.906V260.535C889.293 262.012 889.466 263.406 889.812 264.719C890.159 266.013 890.678 267.161 891.371 268.164C892.082 269.167 892.966 269.96 894.023 270.543C895.081 271.108 896.311 271.391 897.715 271.391C899.1 271.391 900.312 271.108 901.352 270.543C902.409 269.96 903.284 269.167 903.977 268.164C904.669 267.161 905.189 266.013 905.535 264.719C905.9 263.406 906.082 262.012 906.082 260.535V259.906C906.082 258.448 905.9 257.072 905.535 255.777C905.189 254.465 904.66 253.307 903.949 252.305C903.257 251.284 902.382 250.482 901.324 249.898C900.285 249.315 899.064 249.023 897.66 249.023C896.275 249.023 895.053 249.315 893.996 249.898C892.957 250.482 892.082 251.284 891.371 252.305C890.678 253.307 890.159 254.465 889.812 255.777C889.466 257.072 889.293 258.448 889.293 259.906ZM935.613 268.164V245.414H940.699V275H935.859L935.613 268.164ZM936.57 261.93L938.676 261.875C938.676 263.844 938.466 265.667 938.047 267.344C937.646 269.003 936.99 270.443 936.078 271.664C935.167 272.885 933.973 273.842 932.496 274.535C931.02 275.21 929.224 275.547 927.109 275.547C925.669 275.547 924.348 275.337 923.145 274.918C921.96 274.499 920.939 273.852 920.082 272.977C919.225 272.102 918.56 270.962 918.086 269.559C917.63 268.155 917.402 266.469 917.402 264.5V245.414H922.461V264.555C922.461 265.885 922.607 266.988 922.898 267.863C923.208 268.72 923.618 269.404 924.129 269.914C924.658 270.406 925.241 270.753 925.879 270.953C926.535 271.154 927.21 271.254 927.902 271.254C930.053 271.254 931.758 270.844 933.016 270.023C934.273 269.185 935.176 268.064 935.723 266.66C936.288 265.238 936.57 263.661 936.57 261.93ZM953.469 250.062V275H948.41V245.414H953.332L953.469 250.062ZM962.711 245.25L962.684 249.953C962.264 249.862 961.863 249.807 961.48 249.789C961.116 249.753 960.697 249.734 960.223 249.734C959.056 249.734 958.026 249.917 957.133 250.281C956.24 250.646 955.483 251.156 954.863 251.812C954.243 252.469 953.751 253.253 953.387 254.164C953.04 255.057 952.812 256.042 952.703 257.117L951.281 257.938C951.281 256.151 951.454 254.474 951.801 252.906C952.165 251.339 952.721 249.953 953.469 248.75C954.216 247.529 955.164 246.581 956.312 245.906C957.479 245.214 958.865 244.867 960.469 244.867C960.833 244.867 961.253 244.913 961.727 245.004C962.201 245.077 962.529 245.159 962.711 245.25ZM984.613 267.152C984.613 266.423 984.449 265.749 984.121 265.129C983.811 264.491 983.164 263.917 982.18 263.406C981.214 262.878 979.755 262.422 977.805 262.039C976.164 261.693 974.678 261.283 973.348 260.809C972.035 260.335 970.914 259.76 969.984 259.086C969.073 258.411 968.371 257.618 967.879 256.707C967.387 255.796 967.141 254.729 967.141 253.508C967.141 252.341 967.396 251.238 967.906 250.199C968.435 249.16 969.173 248.24 970.121 247.438C971.087 246.635 972.245 246.007 973.594 245.551C974.943 245.095 976.447 244.867 978.105 244.867C980.475 244.867 982.499 245.286 984.176 246.125C985.853 246.964 987.138 248.085 988.031 249.488C988.924 250.874 989.371 252.414 989.371 254.109H984.312C984.312 253.289 984.066 252.496 983.574 251.73C983.1 250.947 982.398 250.299 981.469 249.789C980.557 249.279 979.436 249.023 978.105 249.023C976.702 249.023 975.562 249.242 974.688 249.68C973.831 250.099 973.202 250.637 972.801 251.293C972.418 251.949 972.227 252.642 972.227 253.371C972.227 253.918 972.318 254.41 972.5 254.848C972.701 255.267 973.047 255.659 973.539 256.023C974.031 256.37 974.724 256.698 975.617 257.008C976.51 257.318 977.65 257.628 979.035 257.938C981.46 258.484 983.456 259.141 985.023 259.906C986.591 260.672 987.758 261.611 988.523 262.723C989.289 263.835 989.672 265.184 989.672 266.77C989.672 268.064 989.398 269.249 988.852 270.324C988.323 271.4 987.548 272.329 986.527 273.113C985.525 273.879 984.322 274.48 982.918 274.918C981.533 275.337 979.974 275.547 978.242 275.547C975.635 275.547 973.43 275.082 971.625 274.152C969.82 273.223 968.453 272.02 967.523 270.543C966.594 269.066 966.129 267.508 966.129 265.867H971.215C971.288 267.253 971.689 268.355 972.418 269.176C973.147 269.978 974.04 270.552 975.098 270.898C976.155 271.227 977.203 271.391 978.242 271.391C979.628 271.391 980.785 271.208 981.715 270.844C982.663 270.479 983.383 269.978 983.875 269.34C984.367 268.702 984.613 267.973 984.613 267.152ZM1041.62 253.836V256.352C1041.62 259.341 1041.25 262.021 1040.5 264.391C1039.76 266.76 1038.68 268.775 1037.28 270.434C1035.87 272.092 1034.19 273.359 1032.22 274.234C1030.27 275.109 1028.08 275.547 1025.66 275.547C1023.3 275.547 1021.14 275.109 1019.18 274.234C1017.23 273.359 1015.53 272.092 1014.09 270.434C1012.67 268.775 1011.57 266.76 1010.78 264.391C1010 262.021 1009.61 259.341 1009.61 256.352V253.836C1009.61 250.846 1009.99 248.176 1010.75 245.824C1011.54 243.454 1012.64 241.44 1014.06 239.781C1015.48 238.104 1017.17 236.828 1019.12 235.953C1021.09 235.078 1023.25 234.641 1025.6 234.641C1028.03 234.641 1030.21 235.078 1032.16 235.953C1034.13 236.828 1035.82 238.104 1037.22 239.781C1038.64 241.44 1039.73 243.454 1040.48 245.824C1041.24 248.176 1041.62 250.846 1041.62 253.836ZM1036.4 256.352V253.781C1036.4 251.411 1036.16 249.315 1035.66 247.492C1035.19 245.669 1034.49 244.138 1033.56 242.898C1032.63 241.659 1031.49 240.72 1030.14 240.082C1028.81 239.444 1027.3 239.125 1025.6 239.125C1023.96 239.125 1022.48 239.444 1021.14 240.082C1019.83 240.72 1018.7 241.659 1017.75 242.898C1016.82 244.138 1016.1 245.669 1015.59 247.492C1015.08 249.315 1014.83 251.411 1014.83 253.781V256.352C1014.83 258.74 1015.08 260.854 1015.59 262.695C1016.1 264.518 1016.83 266.059 1017.78 267.316C1018.75 268.556 1019.89 269.495 1021.2 270.133C1022.53 270.771 1024.02 271.09 1025.66 271.09C1027.37 271.09 1028.89 270.771 1030.22 270.133C1031.55 269.495 1032.67 268.556 1033.59 267.316C1034.52 266.059 1035.22 264.518 1035.69 262.695C1036.17 260.854 1036.4 258.74 1036.4 256.352ZM1053.82 251.102V286.375H1048.73V245.414H1053.38L1053.82 251.102ZM1073.75 259.961V260.535C1073.75 262.686 1073.5 264.682 1072.99 266.523C1072.48 268.346 1071.73 269.932 1070.75 271.281C1069.78 272.63 1068.59 273.678 1067.16 274.426C1065.74 275.173 1064.11 275.547 1062.27 275.547C1060.39 275.547 1058.73 275.237 1057.29 274.617C1055.85 273.997 1054.63 273.095 1053.63 271.91C1052.63 270.725 1051.82 269.303 1051.22 267.645C1050.64 265.986 1050.24 264.117 1050.02 262.039V258.977C1050.24 256.789 1050.65 254.829 1051.25 253.098C1051.85 251.366 1052.64 249.889 1053.63 248.668C1054.63 247.428 1055.84 246.49 1057.27 245.852C1058.69 245.195 1060.33 244.867 1062.19 244.867C1064.05 244.867 1065.7 245.232 1067.14 245.961C1068.58 246.672 1069.79 247.693 1070.77 249.023C1071.76 250.354 1072.5 251.949 1072.99 253.809C1073.5 255.65 1073.75 257.701 1073.75 259.961ZM1068.67 260.535V259.961C1068.67 258.484 1068.51 257.099 1068.2 255.805C1067.89 254.492 1067.41 253.344 1066.75 252.359C1066.12 251.357 1065.3 250.573 1064.29 250.008C1063.29 249.424 1062.1 249.133 1060.71 249.133C1059.43 249.133 1058.32 249.352 1057.38 249.789C1056.45 250.227 1055.65 250.819 1055 251.566C1054.34 252.296 1053.8 253.134 1053.38 254.082C1052.98 255.012 1052.68 255.978 1052.48 256.98V264.062C1052.85 265.339 1053.36 266.542 1054.01 267.672C1054.67 268.784 1055.54 269.686 1056.64 270.379C1057.73 271.053 1059.11 271.391 1060.77 271.391C1062.13 271.391 1063.31 271.108 1064.29 270.543C1065.3 269.96 1066.12 269.167 1066.75 268.164C1067.41 267.161 1067.89 266.013 1068.2 264.719C1068.51 263.406 1068.67 262.012 1068.67 260.535ZM1092.48 275.547C1090.42 275.547 1088.56 275.201 1086.88 274.508C1085.22 273.797 1083.79 272.803 1082.59 271.527C1081.4 270.251 1080.49 268.738 1079.85 266.988C1079.21 265.238 1078.89 263.324 1078.89 261.246V260.098C1078.89 257.691 1079.25 255.549 1079.96 253.672C1080.67 251.776 1081.64 250.172 1082.86 248.859C1084.08 247.547 1085.47 246.553 1087.02 245.879C1088.57 245.204 1090.17 244.867 1091.83 244.867C1093.94 244.867 1095.77 245.232 1097.3 245.961C1098.85 246.69 1100.11 247.711 1101.1 249.023C1102.08 250.318 1102.81 251.849 1103.29 253.617C1103.76 255.367 1104 257.281 1104 259.359V261.629H1081.9V257.5H1098.94V257.117C1098.86 255.805 1098.59 254.529 1098.12 253.289C1097.66 252.049 1096.93 251.029 1095.93 250.227C1094.93 249.424 1093.56 249.023 1091.83 249.023C1090.68 249.023 1089.62 249.27 1088.66 249.762C1087.69 250.236 1086.86 250.947 1086.17 251.895C1085.48 252.842 1084.94 254 1084.55 255.367C1084.17 256.734 1083.98 258.311 1083.98 260.098V261.246C1083.98 262.65 1084.17 263.971 1084.55 265.211C1084.96 266.432 1085.53 267.508 1086.28 268.438C1087.04 269.367 1087.96 270.096 1089.04 270.625C1090.13 271.154 1091.37 271.418 1092.76 271.418C1094.54 271.418 1096.06 271.053 1097.3 270.324C1098.54 269.595 1099.62 268.62 1100.55 267.398L1103.61 269.832C1102.98 270.798 1102.16 271.719 1101.18 272.594C1100.2 273.469 1098.98 274.18 1097.54 274.727C1096.12 275.273 1094.43 275.547 1092.48 275.547ZM1114.96 251.73V275H1109.9V245.414H1114.69L1114.96 251.73ZM1113.76 259.086L1111.65 259.004C1111.67 256.98 1111.97 255.112 1112.55 253.398C1113.14 251.667 1113.96 250.163 1115.02 248.887C1116.07 247.611 1117.33 246.626 1118.79 245.934C1120.27 245.223 1121.9 244.867 1123.68 244.867C1125.14 244.867 1126.45 245.068 1127.62 245.469C1128.79 245.852 1129.78 246.471 1130.6 247.328C1131.44 248.185 1132.08 249.297 1132.52 250.664C1132.95 252.013 1133.17 253.663 1133.17 255.613V275H1128.09V255.559C1128.09 254.009 1127.86 252.77 1127.4 251.84C1126.95 250.892 1126.28 250.208 1125.41 249.789C1124.53 249.352 1123.46 249.133 1122.18 249.133C1120.92 249.133 1119.77 249.397 1118.73 249.926C1117.71 250.454 1116.83 251.184 1116.08 252.113C1115.35 253.043 1114.78 254.109 1114.36 255.312C1113.96 256.497 1113.76 257.755 1113.76 259.086Z" fill="black" fill-opacity="0.54"/>
<path d="M1050.91 169.861V187H975.039V172.375L1010.92 133.908C1014.52 129.896 1017.37 126.367 1019.45 123.32C1021.53 120.223 1023.03 117.455 1023.94 115.018C1024.91 112.529 1025.39 110.168 1025.39 107.934C1025.39 104.582 1024.83 101.713 1023.71 99.3262C1022.6 96.8887 1020.95 95.0098 1018.76 93.6895C1016.63 92.3691 1013.99 91.709 1010.84 91.709C1007.49 91.709 1004.59 92.5215 1002.16 94.1465C999.77 95.7715 997.941 98.0312 996.672 100.926C995.453 103.82 994.844 107.096 994.844 110.752H972.83C972.83 104.15 974.404 98.1074 977.553 92.623C980.701 87.0879 985.145 82.6953 990.883 79.4453C996.621 76.1445 1003.43 74.4941 1011.3 74.4941C1019.07 74.4941 1025.62 75.7637 1030.95 78.3027C1036.33 80.791 1040.39 84.3965 1043.14 89.1191C1045.93 93.791 1047.33 99.377 1047.33 105.877C1047.33 109.533 1046.74 113.113 1045.57 116.617C1044.41 120.07 1042.73 123.523 1040.55 126.977C1038.41 130.379 1035.82 133.832 1032.78 137.336C1029.73 140.84 1026.35 144.471 1022.65 148.229L1003.38 169.861H1050.91ZM1142.31 145.562V162.777H1062.41L1061.34 149.447L1107.58 76.0938H1125.02L1106.13 107.705L1083.13 145.562H1142.31ZM1129.74 76.0938V187H1107.81V76.0938H1129.74Z" fill="black" fill-opacity="0.87"/>
</g>
<defs>
<clipPath id="clip0_0_401">
<rect width="377" height="274" fill="white" transform="translate(770 42)"/>
</clipPath>
</defs>
</svg>
