<svg width="775" height="1009" viewBox="0 0 775 1009" fill="none" xmlns="http://www.w3.org/2000/svg">
<path fill-rule="evenodd" clip-rule="evenodd" d="M7.302 0.0049C3.269 0.0049 0 3.2739 0 7.3069C0 11.3389 3.269 14.6089 7.302 14.6089C11.335 14.6089 14.604 11.3389 14.604 7.3069C14.604 3.2739 11.335 0.0049 7.302 0.0049Z" fill="black" fill-opacity="0.42"/>
<path fill-rule="evenodd" clip-rule="evenodd" d="M7.302 63.3711C3.269 63.3711 0 66.6401 0 70.6731C0 74.7051 3.269 77.9751 7.302 77.9751C11.335 77.9751 14.604 74.7051 14.604 70.6731C14.604 66.6401 11.335 63.3711 7.302 63.3711Z" fill="black" fill-opacity="0.42"/>
<path fill-rule="evenodd" clip-rule="evenodd" d="M7.302 126.737C3.269 126.737 0 130.006 0 134.039C0 138.072 3.269 141.341 7.302 141.341C11.335 141.341 14.604 138.072 14.604 134.039C14.604 130.006 11.335 126.737 7.302 126.737Z" fill="black" fill-opacity="0.42"/>
<path fill-rule="evenodd" clip-rule="evenodd" d="M7.302 190.104C3.269 190.104 0 193.374 0 197.406C0 201.439 3.269 204.708 7.302 204.708C11.335 204.708 14.604 201.439 14.604 197.406C14.604 193.374 11.335 190.104 7.302 190.104Z" fill="black" fill-opacity="0.42"/>
<path fill-rule="evenodd" clip-rule="evenodd" d="M7.302 253.47C3.269 253.47 0 256.739 0 260.772C0 264.804 3.269 268.074 7.302 268.074C11.335 268.074 14.604 264.804 14.604 260.772C14.604 256.739 11.335 253.47 7.302 253.47Z" fill="black" fill-opacity="0.42"/>
<path fill-rule="evenodd" clip-rule="evenodd" d="M7.302 316.836C3.269 316.836 0 320.106 0 324.138C0 328.171 3.269 331.44 7.302 331.44C11.335 331.44 14.604 328.171 14.604 324.138C14.604 320.106 11.335 316.836 7.302 316.836Z" fill="black" fill-opacity="0.42"/>
<path fill-rule="evenodd" clip-rule="evenodd" d="M7.302 380.203C3.269 380.203 0 383.473 0 387.505C0 391.538 3.269 394.807 7.302 394.807C11.335 394.807 14.604 391.538 14.604 387.505C14.604 383.473 11.335 380.203 7.302 380.203Z" fill="black" fill-opacity="0.42"/>
<path fill-rule="evenodd" clip-rule="evenodd" d="M7.302 443.569C3.269 443.569 0 446.839 0 450.871C0 454.904 3.269 458.173 7.302 458.173C11.335 458.173 14.604 454.904 14.604 450.871C14.604 446.839 11.335 443.569 7.302 443.569Z" fill="black" fill-opacity="0.42"/>
<path fill-rule="evenodd" clip-rule="evenodd" d="M7.302 506.935C3.269 506.935 0 510.205 0 514.238C0 518.27 3.269 521.539 7.302 521.539C11.335 521.539 14.604 518.27 14.604 514.238C14.604 510.205 11.335 506.935 7.302 506.935Z" fill="black" fill-opacity="0.42"/>
<path fill-rule="evenodd" clip-rule="evenodd" d="M7.302 570.301C3.269 570.301 0 573.571 0 577.604C0 581.636 3.269 584.905 7.302 584.905C11.335 584.905 14.604 581.636 14.604 577.604C14.604 573.571 11.335 570.301 7.302 570.301Z" fill="black" fill-opacity="0.42"/>
<path fill-rule="evenodd" clip-rule="evenodd" d="M7.302 633.669C3.269 633.669 0 636.938 0 640.971C0 645.003 3.269 648.273 7.302 648.273C11.335 648.273 14.604 645.003 14.604 640.971C14.604 636.938 11.335 633.669 7.302 633.669Z" fill="black" fill-opacity="0.42"/>
<path fill-rule="evenodd" clip-rule="evenodd" d="M7.302 697.035C3.269 697.035 0 700.304 0 704.337C0 708.369 3.269 711.639 7.302 711.639C11.335 711.639 14.604 708.369 14.604 704.337C14.604 700.304 11.335 697.035 7.302 697.035Z" fill="black" fill-opacity="0.42"/>
<path fill-rule="evenodd" clip-rule="evenodd" d="M7.302 760.401C3.269 760.401 0 763.67 0 767.703C0 771.736 3.269 775.005 7.302 775.005C11.335 775.005 14.604 771.736 14.604 767.703C14.604 763.67 11.335 760.401 7.302 760.401Z" fill="black" fill-opacity="0.42"/>
<path fill-rule="evenodd" clip-rule="evenodd" d="M7.302 823.767C3.269 823.767 0 827.037 0 831.069C0 835.102 3.269 838.371 7.302 838.371C11.335 838.371 14.604 835.102 14.604 831.069C14.604 827.037 11.335 823.767 7.302 823.767Z" fill="black" fill-opacity="0.42"/>
<path fill-rule="evenodd" clip-rule="evenodd" d="M7.302 887.133C3.269 887.133 0 890.403 0 894.435C0 898.468 3.269 901.737 7.302 901.737C11.335 901.737 14.604 898.468 14.604 894.435C14.604 890.403 11.335 887.133 7.302 887.133Z" fill="black" fill-opacity="0.42"/>
<path fill-rule="evenodd" clip-rule="evenodd" d="M7.302 940.5C3.269 940.5 0 943.77 0 947.802C0 951.835 3.269 955.104 7.302 955.104C11.335 955.104 14.604 951.835 14.604 947.802C14.604 943.77 11.335 940.5 7.302 940.5Z" fill="black" fill-opacity="0.42"/>
<path fill-rule="evenodd" clip-rule="evenodd" d="M7.302 993.866C3.269 993.866 0 997.136 0 1001.17C0 1005.2 3.269 1008.47 7.302 1008.47C11.335 1008.47 14.604 1005.2 14.604 1001.17C14.604 997.136 11.335 993.866 7.302 993.866Z" fill="black" fill-opacity="0.42"/>
<path fill-rule="evenodd" clip-rule="evenodd" d="M70.6692 0.0049C66.6362 0.0049 63.3672 3.2739 63.3672 7.3069C63.3672 11.3389 66.6362 14.6089 70.6692 14.6089C74.7022 14.6089 77.9712 11.3389 77.9712 7.3069C77.9712 3.2739 74.7022 0.0049 70.6692 0.0049Z" fill="black" fill-opacity="0.42"/>
<path fill-rule="evenodd" clip-rule="evenodd" d="M70.6692 63.3711C66.6362 63.3711 63.3672 66.6401 63.3672 70.6731C63.3672 74.7051 66.6362 77.9751 70.6692 77.9751C74.7022 77.9751 77.9712 74.7051 77.9712 70.6731C77.9712 66.6401 74.7022 63.3711 70.6692 63.3711Z" fill="black" fill-opacity="0.42"/>
<path fill-rule="evenodd" clip-rule="evenodd" d="M70.6692 126.737C66.6362 126.737 63.3672 130.006 63.3672 134.039C63.3672 138.072 66.6362 141.341 70.6692 141.341C74.7022 141.341 77.9712 138.072 77.9712 134.039C77.9712 130.006 74.7022 126.737 70.6692 126.737Z" fill="black" fill-opacity="0.42"/>
<path fill-rule="evenodd" clip-rule="evenodd" d="M70.6692 190.104C66.6362 190.104 63.3672 193.374 63.3672 197.406C63.3672 201.439 66.6362 204.708 70.6692 204.708C74.7022 204.708 77.9712 201.439 77.9712 197.406C77.9712 193.374 74.7022 190.104 70.6692 190.104Z" fill="black" fill-opacity="0.42"/>
<path fill-rule="evenodd" clip-rule="evenodd" d="M70.6692 253.47C66.6362 253.47 63.3672 256.739 63.3672 260.772C63.3672 264.804 66.6362 268.074 70.6692 268.074C74.7022 268.074 77.9712 264.804 77.9712 260.772C77.9712 256.739 74.7022 253.47 70.6692 253.47Z" fill="black" fill-opacity="0.42"/>
<path fill-rule="evenodd" clip-rule="evenodd" d="M70.6692 316.836C66.6362 316.836 63.3672 320.106 63.3672 324.138C63.3672 328.171 66.6362 331.44 70.6692 331.44C74.7022 331.44 77.9712 328.171 77.9712 324.138C77.9712 320.106 74.7022 316.836 70.6692 316.836Z" fill="black" fill-opacity="0.42"/>
<path fill-rule="evenodd" clip-rule="evenodd" d="M70.6692 380.203C66.6362 380.203 63.3672 383.473 63.3672 387.505C63.3672 391.538 66.6362 394.807 70.6692 394.807C74.7022 394.807 77.9712 391.538 77.9712 387.505C77.9712 383.473 74.7022 380.203 70.6692 380.203Z" fill="black" fill-opacity="0.42"/>
<path fill-rule="evenodd" clip-rule="evenodd" d="M70.6692 443.569C66.6362 443.569 63.3672 446.839 63.3672 450.871C63.3672 454.904 66.6362 458.173 70.6692 458.173C74.7022 458.173 77.9712 454.904 77.9712 450.871C77.9712 446.839 74.7022 443.569 70.6692 443.569Z" fill="black" fill-opacity="0.42"/>
<path fill-rule="evenodd" clip-rule="evenodd" d="M70.6692 506.935C66.6362 506.935 63.3672 510.205 63.3672 514.238C63.3672 518.27 66.6362 521.539 70.6692 521.539C74.7022 521.539 77.9712 518.27 77.9712 514.238C77.9712 510.205 74.7022 506.935 70.6692 506.935Z" fill="black" fill-opacity="0.42"/>
<path fill-rule="evenodd" clip-rule="evenodd" d="M70.6692 570.301C66.6362 570.301 63.3672 573.571 63.3672 577.604C63.3672 581.636 66.6362 584.905 70.6692 584.905C74.7022 584.905 77.9712 581.636 77.9712 577.604C77.9712 573.571 74.7022 570.301 70.6692 570.301Z" fill="black" fill-opacity="0.42"/>
<path fill-rule="evenodd" clip-rule="evenodd" d="M70.6692 633.669C66.6362 633.669 63.3672 636.938 63.3672 640.971C63.3672 645.003 66.6362 648.273 70.6692 648.273C74.7022 648.273 77.9712 645.003 77.9712 640.971C77.9712 636.938 74.7022 633.669 70.6692 633.669Z" fill="black" fill-opacity="0.42"/>
<path fill-rule="evenodd" clip-rule="evenodd" d="M70.6692 697.035C66.6362 697.035 63.3672 700.304 63.3672 704.337C63.3672 708.369 66.6362 711.639 70.6692 711.639C74.7022 711.639 77.9712 708.369 77.9712 704.337C77.9712 700.304 74.7022 697.035 70.6692 697.035Z" fill="black" fill-opacity="0.42"/>
<path fill-rule="evenodd" clip-rule="evenodd" d="M70.6692 760.401C66.6362 760.401 63.3672 763.67 63.3672 767.703C63.3672 771.736 66.6362 775.005 70.6692 775.005C74.7022 775.005 77.9712 771.736 77.9712 767.703C77.9712 763.67 74.7022 760.401 70.6692 760.401Z" fill="black" fill-opacity="0.42"/>
<path fill-rule="evenodd" clip-rule="evenodd" d="M70.6692 823.767C66.6362 823.767 63.3672 827.037 63.3672 831.069C63.3672 835.102 66.6362 838.371 70.6692 838.371C74.7022 838.371 77.9712 835.102 77.9712 831.069C77.9712 827.037 74.7022 823.767 70.6692 823.767Z" fill="black" fill-opacity="0.42"/>
<path fill-rule="evenodd" clip-rule="evenodd" d="M70.6692 887.133C66.6362 887.133 63.3672 890.403 63.3672 894.435C63.3672 898.468 66.6362 901.737 70.6692 901.737C74.7022 901.737 77.9712 898.468 77.9712 894.435C77.9712 890.403 74.7022 887.133 70.6692 887.133Z" fill="black" fill-opacity="0.42"/>
<path fill-rule="evenodd" clip-rule="evenodd" d="M70.6692 940.5C66.6362 940.5 63.3672 943.77 63.3672 947.802C63.3672 951.835 66.6362 955.104 70.6692 955.104C74.7022 955.104 77.9712 951.835 77.9712 947.802C77.9712 943.77 74.7022 940.5 70.6692 940.5Z" fill="black" fill-opacity="0.42"/>
<path fill-rule="evenodd" clip-rule="evenodd" d="M70.6692 993.866C66.6362 993.866 63.3672 997.136 63.3672 1001.17C63.3672 1005.2 66.6362 1008.47 70.6692 1008.47C74.7022 1008.47 77.9712 1005.2 77.9712 1001.17C77.9712 997.136 74.7022 993.866 70.6692 993.866Z" fill="black" fill-opacity="0.42"/>
<path fill-rule="evenodd" clip-rule="evenodd" d="M134.034 0.0049C130.001 0.0049 126.732 3.2739 126.732 7.3069C126.732 11.3389 130.001 14.6089 134.034 14.6089C138.067 14.6089 141.336 11.3389 141.336 7.3069C141.336 3.2739 138.067 0.0049 134.034 0.0049Z" fill="black" fill-opacity="0.42"/>
<path fill-rule="evenodd" clip-rule="evenodd" d="M134.034 63.3711C130.001 63.3711 126.732 66.6401 126.732 70.6731C126.732 74.7051 130.001 77.9751 134.034 77.9751C138.067 77.9751 141.336 74.7051 141.336 70.6731C141.336 66.6401 138.067 63.3711 134.034 63.3711Z" fill="black" fill-opacity="0.42"/>
<path fill-rule="evenodd" clip-rule="evenodd" d="M134.034 126.737C130.001 126.737 126.732 130.006 126.732 134.039C126.732 138.072 130.001 141.341 134.034 141.341C138.067 141.341 141.336 138.072 141.336 134.039C141.336 130.006 138.067 126.737 134.034 126.737Z" fill="black" fill-opacity="0.42"/>
<path fill-rule="evenodd" clip-rule="evenodd" d="M134.034 190.104C130.001 190.104 126.732 193.374 126.732 197.406C126.732 201.439 130.001 204.708 134.034 204.708C138.067 204.708 141.336 201.439 141.336 197.406C141.336 193.374 138.067 190.104 134.034 190.104Z" fill="black" fill-opacity="0.42"/>
<path fill-rule="evenodd" clip-rule="evenodd" d="M134.034 253.47C130.001 253.47 126.732 256.739 126.732 260.772C126.732 264.804 130.001 268.074 134.034 268.074C138.067 268.074 141.336 264.804 141.336 260.772C141.336 256.739 138.067 253.47 134.034 253.47Z" fill="black" fill-opacity="0.42"/>
<path fill-rule="evenodd" clip-rule="evenodd" d="M134.034 316.836C130.001 316.836 126.732 320.106 126.732 324.138C126.732 328.171 130.001 331.44 134.034 331.44C138.067 331.44 141.336 328.171 141.336 324.138C141.336 320.106 138.067 316.836 134.034 316.836Z" fill="black" fill-opacity="0.42"/>
<path fill-rule="evenodd" clip-rule="evenodd" d="M134.034 380.203C130.001 380.203 126.732 383.473 126.732 387.505C126.732 391.538 130.001 394.807 134.034 394.807C138.067 394.807 141.336 391.538 141.336 387.505C141.336 383.473 138.067 380.203 134.034 380.203Z" fill="black" fill-opacity="0.42"/>
<path fill-rule="evenodd" clip-rule="evenodd" d="M134.034 443.569C130.001 443.569 126.732 446.839 126.732 450.871C126.732 454.904 130.001 458.173 134.034 458.173C138.067 458.173 141.336 454.904 141.336 450.871C141.336 446.839 138.067 443.569 134.034 443.569Z" fill="black" fill-opacity="0.42"/>
<path fill-rule="evenodd" clip-rule="evenodd" d="M134.034 506.935C130.001 506.935 126.732 510.205 126.732 514.238C126.732 518.27 130.001 521.539 134.034 521.539C138.067 521.539 141.336 518.27 141.336 514.238C141.336 510.205 138.067 506.935 134.034 506.935Z" fill="black" fill-opacity="0.42"/>
<path fill-rule="evenodd" clip-rule="evenodd" d="M134.034 570.301C130.001 570.301 126.732 573.571 126.732 577.604C126.732 581.636 130.001 584.905 134.034 584.905C138.067 584.905 141.336 581.636 141.336 577.604C141.336 573.571 138.067 570.301 134.034 570.301Z" fill="black" fill-opacity="0.42"/>
<path fill-rule="evenodd" clip-rule="evenodd" d="M134.034 633.669C130.001 633.669 126.732 636.938 126.732 640.971C126.732 645.003 130.001 648.273 134.034 648.273C138.067 648.273 141.336 645.003 141.336 640.971C141.336 636.938 138.067 633.669 134.034 633.669Z" fill="black" fill-opacity="0.42"/>
<path fill-rule="evenodd" clip-rule="evenodd" d="M134.034 697.035C130.001 697.035 126.732 700.304 126.732 704.337C126.732 708.369 130.001 711.639 134.034 711.639C138.067 711.639 141.336 708.369 141.336 704.337C141.336 700.304 138.067 697.035 134.034 697.035Z" fill="black" fill-opacity="0.42"/>
<path fill-rule="evenodd" clip-rule="evenodd" d="M134.034 760.401C130.001 760.401 126.732 763.67 126.732 767.703C126.732 771.736 130.001 775.005 134.034 775.005C138.067 775.005 141.336 771.736 141.336 767.703C141.336 763.67 138.067 760.401 134.034 760.401Z" fill="black" fill-opacity="0.42"/>
<path fill-rule="evenodd" clip-rule="evenodd" d="M134.034 823.767C130.001 823.767 126.732 827.037 126.732 831.069C126.732 835.102 130.001 838.371 134.034 838.371C138.067 838.371 141.336 835.102 141.336 831.069C141.336 827.037 138.067 823.767 134.034 823.767Z" fill="black" fill-opacity="0.42"/>
<path fill-rule="evenodd" clip-rule="evenodd" d="M134.034 887.133C130.001 887.133 126.732 890.403 126.732 894.435C126.732 898.468 130.001 901.737 134.034 901.737C138.067 901.737 141.336 898.468 141.336 894.435C141.336 890.403 138.067 887.133 134.034 887.133Z" fill="black" fill-opacity="0.42"/>
<path fill-rule="evenodd" clip-rule="evenodd" d="M134.034 940.5C130.001 940.5 126.732 943.77 126.732 947.802C126.732 951.835 130.001 955.104 134.034 955.104C138.067 955.104 141.336 951.835 141.336 947.802C141.336 943.77 138.067 940.5 134.034 940.5Z" fill="black" fill-opacity="0.42"/>
<path fill-rule="evenodd" clip-rule="evenodd" d="M134.034 993.866C130.001 993.866 126.732 997.136 126.732 1001.17C126.732 1005.2 130.001 1008.47 134.034 1008.47C138.067 1008.47 141.336 1005.2 141.336 1001.17C141.336 997.136 138.067 993.866 134.034 993.866Z" fill="black" fill-opacity="0.42"/>
<path fill-rule="evenodd" clip-rule="evenodd" d="M197.402 0.0049C193.369 0.0049 190.1 3.2739 190.1 7.3069C190.1 11.3389 193.369 14.6089 197.402 14.6089C201.435 14.6089 204.704 11.3389 204.704 7.3069C204.704 3.2739 201.435 0.0049 197.402 0.0049Z" fill="black" fill-opacity="0.42"/>
<path fill-rule="evenodd" clip-rule="evenodd" d="M197.402 63.3711C193.369 63.3711 190.1 66.6401 190.1 70.6731C190.1 74.7051 193.369 77.9751 197.402 77.9751C201.435 77.9751 204.704 74.7051 204.704 70.6731C204.704 66.6401 201.435 63.3711 197.402 63.3711Z" fill="black" fill-opacity="0.42"/>
<path fill-rule="evenodd" clip-rule="evenodd" d="M197.402 126.737C193.369 126.737 190.1 130.006 190.1 134.039C190.1 138.072 193.369 141.341 197.402 141.341C201.435 141.341 204.704 138.072 204.704 134.039C204.704 130.006 201.435 126.737 197.402 126.737Z" fill="black" fill-opacity="0.42"/>
<path fill-rule="evenodd" clip-rule="evenodd" d="M197.402 190.104C193.369 190.104 190.1 193.374 190.1 197.406C190.1 201.439 193.369 204.708 197.402 204.708C201.435 204.708 204.704 201.439 204.704 197.406C204.704 193.374 201.435 190.104 197.402 190.104Z" fill="black" fill-opacity="0.42"/>
<path fill-rule="evenodd" clip-rule="evenodd" d="M197.402 253.47C193.369 253.47 190.1 256.739 190.1 260.772C190.1 264.804 193.369 268.074 197.402 268.074C201.435 268.074 204.704 264.804 204.704 260.772C204.704 256.739 201.435 253.47 197.402 253.47Z" fill="black" fill-opacity="0.42"/>
<path fill-rule="evenodd" clip-rule="evenodd" d="M197.402 316.836C193.369 316.836 190.1 320.106 190.1 324.138C190.1 328.171 193.369 331.44 197.402 331.44C201.435 331.44 204.704 328.171 204.704 324.138C204.704 320.106 201.435 316.836 197.402 316.836Z" fill="black" fill-opacity="0.42"/>
<path fill-rule="evenodd" clip-rule="evenodd" d="M197.402 380.203C193.369 380.203 190.1 383.473 190.1 387.505C190.1 391.538 193.369 394.807 197.402 394.807C201.435 394.807 204.704 391.538 204.704 387.505C204.704 383.473 201.435 380.203 197.402 380.203Z" fill="black" fill-opacity="0.42"/>
<path fill-rule="evenodd" clip-rule="evenodd" d="M197.402 443.569C193.369 443.569 190.1 446.839 190.1 450.871C190.1 454.904 193.369 458.173 197.402 458.173C201.435 458.173 204.704 454.904 204.704 450.871C204.704 446.839 201.435 443.569 197.402 443.569Z" fill="black" fill-opacity="0.42"/>
<path fill-rule="evenodd" clip-rule="evenodd" d="M197.402 506.935C193.369 506.935 190.1 510.205 190.1 514.238C190.1 518.27 193.369 521.539 197.402 521.539C201.435 521.539 204.704 518.27 204.704 514.238C204.704 510.205 201.435 506.935 197.402 506.935Z" fill="black" fill-opacity="0.42"/>
<path fill-rule="evenodd" clip-rule="evenodd" d="M197.402 570.301C193.369 570.301 190.1 573.571 190.1 577.604C190.1 581.636 193.369 584.905 197.402 584.905C201.435 584.905 204.704 581.636 204.704 577.604C204.704 573.571 201.435 570.301 197.402 570.301Z" fill="black" fill-opacity="0.42"/>
<path fill-rule="evenodd" clip-rule="evenodd" d="M197.402 633.669C193.369 633.669 190.1 636.938 190.1 640.971C190.1 645.003 193.369 648.273 197.402 648.273C201.435 648.273 204.704 645.003 204.704 640.971C204.704 636.938 201.435 633.669 197.402 633.669Z" fill="black" fill-opacity="0.42"/>
<path fill-rule="evenodd" clip-rule="evenodd" d="M197.402 697.035C193.369 697.035 190.1 700.304 190.1 704.337C190.1 708.369 193.369 711.639 197.402 711.639C201.435 711.639 204.704 708.369 204.704 704.337C204.704 700.304 201.435 697.035 197.402 697.035Z" fill="black" fill-opacity="0.42"/>
<path fill-rule="evenodd" clip-rule="evenodd" d="M197.402 760.401C193.369 760.401 190.1 763.67 190.1 767.703C190.1 771.736 193.369 775.005 197.402 775.005C201.435 775.005 204.704 771.736 204.704 767.703C204.704 763.67 201.435 760.401 197.402 760.401Z" fill="black" fill-opacity="0.42"/>
<path fill-rule="evenodd" clip-rule="evenodd" d="M197.402 823.767C193.369 823.767 190.1 827.037 190.1 831.069C190.1 835.102 193.369 838.371 197.402 838.371C201.435 838.371 204.704 835.102 204.704 831.069C204.704 827.037 201.435 823.767 197.402 823.767Z" fill="black" fill-opacity="0.42"/>
<path fill-rule="evenodd" clip-rule="evenodd" d="M197.402 887.133C193.369 887.133 190.1 890.403 190.1 894.435C190.1 898.468 193.369 901.737 197.402 901.737C201.435 901.737 204.704 898.468 204.704 894.435C204.704 890.403 201.435 887.133 197.402 887.133Z" fill="black" fill-opacity="0.42"/>
<path fill-rule="evenodd" clip-rule="evenodd" d="M197.402 940.5C193.369 940.5 190.1 943.77 190.1 947.802C190.1 951.835 193.369 955.104 197.402 955.104C201.435 955.104 204.704 951.835 204.704 947.802C204.704 943.77 201.435 940.5 197.402 940.5Z" fill="black" fill-opacity="0.42"/>
<path fill-rule="evenodd" clip-rule="evenodd" d="M197.402 993.866C193.369 993.866 190.1 997.136 190.1 1001.17C190.1 1005.2 193.369 1008.47 197.402 1008.47C201.435 1008.47 204.704 1005.2 204.704 1001.17C204.704 997.136 201.435 993.866 197.402 993.866Z" fill="black" fill-opacity="0.42"/>
<path fill-rule="evenodd" clip-rule="evenodd" d="M260.767 0.0049C256.734 0.0049 253.465 3.2739 253.465 7.3069C253.465 11.3389 256.734 14.6089 260.767 14.6089C264.8 14.6089 268.069 11.3389 268.069 7.3069C268.069 3.2739 264.8 0.0049 260.767 0.0049Z" fill="black" fill-opacity="0.42"/>
<path fill-rule="evenodd" clip-rule="evenodd" d="M260.767 63.3711C256.734 63.3711 253.465 66.6401 253.465 70.6731C253.465 74.7051 256.734 77.9751 260.767 77.9751C264.8 77.9751 268.069 74.7051 268.069 70.6731C268.069 66.6401 264.8 63.3711 260.767 63.3711Z" fill="black" fill-opacity="0.42"/>
<path fill-rule="evenodd" clip-rule="evenodd" d="M260.767 126.737C256.734 126.737 253.465 130.006 253.465 134.039C253.465 138.072 256.734 141.341 260.767 141.341C264.8 141.341 268.069 138.072 268.069 134.039C268.069 130.006 264.8 126.737 260.767 126.737Z" fill="black" fill-opacity="0.42"/>
<path fill-rule="evenodd" clip-rule="evenodd" d="M260.767 190.104C256.734 190.104 253.465 193.374 253.465 197.406C253.465 201.439 256.734 204.708 260.767 204.708C264.8 204.708 268.069 201.439 268.069 197.406C268.069 193.374 264.8 190.104 260.767 190.104Z" fill="black" fill-opacity="0.42"/>
<path fill-rule="evenodd" clip-rule="evenodd" d="M260.767 253.47C256.734 253.47 253.465 256.739 253.465 260.772C253.465 264.804 256.734 268.074 260.767 268.074C264.8 268.074 268.069 264.804 268.069 260.772C268.069 256.739 264.8 253.47 260.767 253.47Z" fill="black" fill-opacity="0.42"/>
<path fill-rule="evenodd" clip-rule="evenodd" d="M260.767 316.836C256.734 316.836 253.465 320.106 253.465 324.138C253.465 328.171 256.734 331.44 260.767 331.44C264.8 331.44 268.069 328.171 268.069 324.138C268.069 320.106 264.8 316.836 260.767 316.836Z" fill="black" fill-opacity="0.42"/>
<path fill-rule="evenodd" clip-rule="evenodd" d="M260.767 380.203C256.734 380.203 253.465 383.473 253.465 387.505C253.465 391.538 256.734 394.807 260.767 394.807C264.8 394.807 268.069 391.538 268.069 387.505C268.069 383.473 264.8 380.203 260.767 380.203Z" fill="black" fill-opacity="0.42"/>
<path fill-rule="evenodd" clip-rule="evenodd" d="M260.767 443.569C256.734 443.569 253.465 446.839 253.465 450.871C253.465 454.904 256.734 458.173 260.767 458.173C264.8 458.173 268.069 454.904 268.069 450.871C268.069 446.839 264.8 443.569 260.767 443.569Z" fill="black" fill-opacity="0.42"/>
<path fill-rule="evenodd" clip-rule="evenodd" d="M260.767 506.935C256.734 506.935 253.465 510.205 253.465 514.238C253.465 518.27 256.734 521.539 260.767 521.539C264.8 521.539 268.069 518.27 268.069 514.238C268.069 510.205 264.8 506.935 260.767 506.935Z" fill="black" fill-opacity="0.42"/>
<path fill-rule="evenodd" clip-rule="evenodd" d="M260.767 570.301C256.734 570.301 253.465 573.571 253.465 577.604C253.465 581.636 256.734 584.905 260.767 584.905C264.8 584.905 268.069 581.636 268.069 577.604C268.069 573.571 264.8 570.301 260.767 570.301Z" fill="black" fill-opacity="0.42"/>
<path fill-rule="evenodd" clip-rule="evenodd" d="M260.767 633.669C256.734 633.669 253.465 636.938 253.465 640.971C253.465 645.003 256.734 648.273 260.767 648.273C264.8 648.273 268.069 645.003 268.069 640.971C268.069 636.938 264.8 633.669 260.767 633.669Z" fill="black" fill-opacity="0.42"/>
<path fill-rule="evenodd" clip-rule="evenodd" d="M260.767 697.035C256.734 697.035 253.465 700.304 253.465 704.337C253.465 708.369 256.734 711.639 260.767 711.639C264.8 711.639 268.069 708.369 268.069 704.337C268.069 700.304 264.8 697.035 260.767 697.035Z" fill="black" fill-opacity="0.42"/>
<path fill-rule="evenodd" clip-rule="evenodd" d="M260.767 760.401C256.734 760.401 253.465 763.67 253.465 767.703C253.465 771.736 256.734 775.005 260.767 775.005C264.8 775.005 268.069 771.736 268.069 767.703C268.069 763.67 264.8 760.401 260.767 760.401Z" fill="black" fill-opacity="0.42"/>
<path fill-rule="evenodd" clip-rule="evenodd" d="M260.767 823.767C256.734 823.767 253.465 827.037 253.465 831.069C253.465 835.102 256.734 838.371 260.767 838.371C264.8 838.371 268.069 835.102 268.069 831.069C268.069 827.037 264.8 823.767 260.767 823.767Z" fill="black" fill-opacity="0.42"/>
<path fill-rule="evenodd" clip-rule="evenodd" d="M260.767 887.133C256.734 887.133 253.465 890.403 253.465 894.435C253.465 898.468 256.734 901.737 260.767 901.737C264.8 901.737 268.069 898.468 268.069 894.435C268.069 890.403 264.8 887.133 260.767 887.133Z" fill="black" fill-opacity="0.42"/>
<path fill-rule="evenodd" clip-rule="evenodd" d="M260.767 940.5C256.734 940.5 253.465 943.77 253.465 947.802C253.465 951.835 256.734 955.104 260.767 955.104C264.8 955.104 268.069 951.835 268.069 947.802C268.069 943.77 264.8 940.5 260.767 940.5Z" fill="black" fill-opacity="0.42"/>
<path fill-rule="evenodd" clip-rule="evenodd" d="M260.767 993.866C256.734 993.866 253.465 997.136 253.465 1001.17C253.465 1005.2 256.734 1008.47 260.767 1008.47C264.8 1008.47 268.069 1005.2 268.069 1001.17C268.069 997.136 264.8 993.866 260.767 993.866Z" fill="black" fill-opacity="0.42"/>
<path fill-rule="evenodd" clip-rule="evenodd" d="M324.134 0.0049C320.101 0.0049 316.832 3.2739 316.832 7.3069C316.832 11.3389 320.101 14.6089 324.134 14.6089C328.167 14.6089 331.436 11.3389 331.436 7.3069C331.436 3.2739 328.167 0.0049 324.134 0.0049Z" fill="black" fill-opacity="0.42"/>
<path fill-rule="evenodd" clip-rule="evenodd" d="M324.134 63.3711C320.101 63.3711 316.832 66.6401 316.832 70.6731C316.832 74.7051 320.101 77.9751 324.134 77.9751C328.167 77.9751 331.436 74.7051 331.436 70.6731C331.436 66.6401 328.167 63.3711 324.134 63.3711Z" fill="black" fill-opacity="0.42"/>
<path fill-rule="evenodd" clip-rule="evenodd" d="M324.134 126.737C320.101 126.737 316.832 130.006 316.832 134.039C316.832 138.072 320.101 141.341 324.134 141.341C328.167 141.341 331.436 138.072 331.436 134.039C331.436 130.006 328.167 126.737 324.134 126.737Z" fill="black" fill-opacity="0.42"/>
<path fill-rule="evenodd" clip-rule="evenodd" d="M324.134 190.104C320.101 190.104 316.832 193.374 316.832 197.406C316.832 201.439 320.101 204.708 324.134 204.708C328.167 204.708 331.436 201.439 331.436 197.406C331.436 193.374 328.167 190.104 324.134 190.104Z" fill="black" fill-opacity="0.42"/>
<path fill-rule="evenodd" clip-rule="evenodd" d="M324.134 253.47C320.101 253.47 316.832 256.739 316.832 260.772C316.832 264.804 320.101 268.074 324.134 268.074C328.167 268.074 331.436 264.804 331.436 260.772C331.436 256.739 328.167 253.47 324.134 253.47Z" fill="black" fill-opacity="0.42"/>
<path fill-rule="evenodd" clip-rule="evenodd" d="M324.134 316.836C320.101 316.836 316.832 320.106 316.832 324.138C316.832 328.171 320.101 331.44 324.134 331.44C328.167 331.44 331.436 328.171 331.436 324.138C331.436 320.106 328.167 316.836 324.134 316.836Z" fill="black" fill-opacity="0.42"/>
<path fill-rule="evenodd" clip-rule="evenodd" d="M324.134 380.203C320.101 380.203 316.832 383.473 316.832 387.505C316.832 391.538 320.101 394.807 324.134 394.807C328.167 394.807 331.436 391.538 331.436 387.505C331.436 383.473 328.167 380.203 324.134 380.203Z" fill="black" fill-opacity="0.42"/>
<path fill-rule="evenodd" clip-rule="evenodd" d="M324.134 443.569C320.101 443.569 316.832 446.839 316.832 450.871C316.832 454.904 320.101 458.173 324.134 458.173C328.167 458.173 331.436 454.904 331.436 450.871C331.436 446.839 328.167 443.569 324.134 443.569Z" fill="black" fill-opacity="0.42"/>
<path fill-rule="evenodd" clip-rule="evenodd" d="M324.134 506.935C320.101 506.935 316.832 510.205 316.832 514.238C316.832 518.27 320.101 521.539 324.134 521.539C328.167 521.539 331.436 518.27 331.436 514.238C331.436 510.205 328.167 506.935 324.134 506.935Z" fill="black" fill-opacity="0.42"/>
<path fill-rule="evenodd" clip-rule="evenodd" d="M324.134 570.301C320.101 570.301 316.832 573.571 316.832 577.604C316.832 581.636 320.101 584.905 324.134 584.905C328.167 584.905 331.436 581.636 331.436 577.604C331.436 573.571 328.167 570.301 324.134 570.301Z" fill="black" fill-opacity="0.42"/>
<path fill-rule="evenodd" clip-rule="evenodd" d="M324.134 633.669C320.101 633.669 316.832 636.938 316.832 640.971C316.832 645.003 320.101 648.273 324.134 648.273C328.167 648.273 331.436 645.003 331.436 640.971C331.436 636.938 328.167 633.669 324.134 633.669Z" fill="black" fill-opacity="0.42"/>
<path fill-rule="evenodd" clip-rule="evenodd" d="M324.134 697.035C320.101 697.035 316.832 700.304 316.832 704.337C316.832 708.369 320.101 711.639 324.134 711.639C328.167 711.639 331.436 708.369 331.436 704.337C331.436 700.304 328.167 697.035 324.134 697.035Z" fill="black" fill-opacity="0.42"/>
<path fill-rule="evenodd" clip-rule="evenodd" d="M324.134 760.401C320.101 760.401 316.832 763.67 316.832 767.703C316.832 771.736 320.101 775.005 324.134 775.005C328.167 775.005 331.436 771.736 331.436 767.703C331.436 763.67 328.167 760.401 324.134 760.401Z" fill="black" fill-opacity="0.42"/>
<path fill-rule="evenodd" clip-rule="evenodd" d="M324.134 823.767C320.101 823.767 316.832 827.037 316.832 831.069C316.832 835.102 320.101 838.371 324.134 838.371C328.167 838.371 331.436 835.102 331.436 831.069C331.436 827.037 328.167 823.767 324.134 823.767Z" fill="black" fill-opacity="0.42"/>
<path fill-rule="evenodd" clip-rule="evenodd" d="M324.134 887.133C320.101 887.133 316.832 890.403 316.832 894.435C316.832 898.468 320.101 901.737 324.134 901.737C328.167 901.737 331.436 898.468 331.436 894.435C331.436 890.403 328.167 887.133 324.134 887.133Z" fill="black" fill-opacity="0.42"/>
<path fill-rule="evenodd" clip-rule="evenodd" d="M324.134 940.5C320.101 940.5 316.832 943.77 316.832 947.802C316.832 951.835 320.101 955.104 324.134 955.104C328.167 955.104 331.436 951.835 331.436 947.802C331.436 943.77 328.167 940.5 324.134 940.5Z" fill="black" fill-opacity="0.42"/>
<path fill-rule="evenodd" clip-rule="evenodd" d="M324.134 993.866C320.101 993.866 316.832 997.136 316.832 1001.17C316.832 1005.2 320.101 1008.47 324.134 1008.47C328.167 1008.47 331.436 1005.2 331.436 1001.17C331.436 997.136 328.167 993.866 324.134 993.866Z" fill="black" fill-opacity="0.42"/>
<path fill-rule="evenodd" clip-rule="evenodd" d="M387.499 0.0049C383.466 0.0049 380.197 3.2739 380.197 7.3069C380.197 11.3389 383.466 14.6089 387.499 14.6089C391.532 14.6089 394.801 11.3389 394.801 7.3069C394.801 3.2739 391.532 0.0049 387.499 0.0049Z" fill="black" fill-opacity="0.42"/>
<path fill-rule="evenodd" clip-rule="evenodd" d="M387.499 63.3711C383.466 63.3711 380.197 66.6401 380.197 70.6731C380.197 74.7051 383.466 77.9751 387.499 77.9751C391.532 77.9751 394.801 74.7051 394.801 70.6731C394.801 66.6401 391.532 63.3711 387.499 63.3711Z" fill="black" fill-opacity="0.42"/>
<path fill-rule="evenodd" clip-rule="evenodd" d="M387.499 126.737C383.466 126.737 380.197 130.006 380.197 134.039C380.197 138.072 383.466 141.341 387.499 141.341C391.532 141.341 394.801 138.072 394.801 134.039C394.801 130.006 391.532 126.737 387.499 126.737Z" fill="black" fill-opacity="0.42"/>
<path fill-rule="evenodd" clip-rule="evenodd" d="M387.499 190.104C383.466 190.104 380.197 193.374 380.197 197.406C380.197 201.439 383.466 204.708 387.499 204.708C391.532 204.708 394.801 201.439 394.801 197.406C394.801 193.374 391.532 190.104 387.499 190.104Z" fill="black" fill-opacity="0.42"/>
<path fill-rule="evenodd" clip-rule="evenodd" d="M387.499 253.47C383.466 253.47 380.197 256.739 380.197 260.772C380.197 264.804 383.466 268.074 387.499 268.074C391.532 268.074 394.801 264.804 394.801 260.772C394.801 256.739 391.532 253.47 387.499 253.47Z" fill="black" fill-opacity="0.42"/>
<path fill-rule="evenodd" clip-rule="evenodd" d="M387.499 316.836C383.466 316.836 380.197 320.106 380.197 324.138C380.197 328.171 383.466 331.44 387.499 331.44C391.532 331.44 394.801 328.171 394.801 324.138C394.801 320.106 391.532 316.836 387.499 316.836Z" fill="black" fill-opacity="0.42"/>
<path fill-rule="evenodd" clip-rule="evenodd" d="M387.499 380.203C383.466 380.203 380.197 383.473 380.197 387.505C380.197 391.538 383.466 394.807 387.499 394.807C391.532 394.807 394.801 391.538 394.801 387.505C394.801 383.473 391.532 380.203 387.499 380.203Z" fill="black" fill-opacity="0.42"/>
<path fill-rule="evenodd" clip-rule="evenodd" d="M387.499 443.569C383.466 443.569 380.197 446.839 380.197 450.871C380.197 454.904 383.466 458.173 387.499 458.173C391.532 458.173 394.801 454.904 394.801 450.871C394.801 446.839 391.532 443.569 387.499 443.569Z" fill="black" fill-opacity="0.42"/>
<path fill-rule="evenodd" clip-rule="evenodd" d="M387.499 506.935C383.466 506.935 380.197 510.205 380.197 514.238C380.197 518.27 383.466 521.539 387.499 521.539C391.532 521.539 394.801 518.27 394.801 514.238C394.801 510.205 391.532 506.935 387.499 506.935Z" fill="black" fill-opacity="0.42"/>
<path fill-rule="evenodd" clip-rule="evenodd" d="M387.499 570.301C383.466 570.301 380.197 573.571 380.197 577.604C380.197 581.636 383.466 584.905 387.499 584.905C391.532 584.905 394.801 581.636 394.801 577.604C394.801 573.571 391.532 570.301 387.499 570.301Z" fill="black" fill-opacity="0.42"/>
<path fill-rule="evenodd" clip-rule="evenodd" d="M387.499 633.669C383.466 633.669 380.197 636.938 380.197 640.971C380.197 645.003 383.466 648.273 387.499 648.273C391.532 648.273 394.801 645.003 394.801 640.971C394.801 636.938 391.532 633.669 387.499 633.669Z" fill="black" fill-opacity="0.42"/>
<path fill-rule="evenodd" clip-rule="evenodd" d="M387.499 697.035C383.466 697.035 380.197 700.304 380.197 704.337C380.197 708.369 383.466 711.639 387.499 711.639C391.532 711.639 394.801 708.369 394.801 704.337C394.801 700.304 391.532 697.035 387.499 697.035Z" fill="black" fill-opacity="0.42"/>
<path fill-rule="evenodd" clip-rule="evenodd" d="M387.499 760.401C383.466 760.401 380.197 763.67 380.197 767.703C380.197 771.736 383.466 775.005 387.499 775.005C391.532 775.005 394.801 771.736 394.801 767.703C394.801 763.67 391.532 760.401 387.499 760.401Z" fill="black" fill-opacity="0.42"/>
<path fill-rule="evenodd" clip-rule="evenodd" d="M387.499 823.767C383.466 823.767 380.197 827.037 380.197 831.069C380.197 835.102 383.466 838.371 387.499 838.371C391.532 838.371 394.801 835.102 394.801 831.069C394.801 827.037 391.532 823.767 387.499 823.767Z" fill="black" fill-opacity="0.42"/>
<path fill-rule="evenodd" clip-rule="evenodd" d="M387.499 887.133C383.466 887.133 380.197 890.403 380.197 894.435C380.197 898.468 383.466 901.737 387.499 901.737C391.532 901.737 394.801 898.468 394.801 894.435C394.801 890.403 391.532 887.133 387.499 887.133Z" fill="black" fill-opacity="0.42"/>
<path fill-rule="evenodd" clip-rule="evenodd" d="M387.499 940.5C383.466 940.5 380.197 943.77 380.197 947.802C380.197 951.835 383.466 955.104 387.499 955.104C391.532 955.104 394.801 951.835 394.801 947.802C394.801 943.77 391.532 940.5 387.499 940.5Z" fill="black" fill-opacity="0.42"/>
<path fill-rule="evenodd" clip-rule="evenodd" d="M387.499 993.866C383.466 993.866 380.197 997.136 380.197 1001.17C380.197 1005.2 383.466 1008.47 387.499 1008.47C391.532 1008.47 394.801 1005.2 394.801 1001.17C394.801 997.136 391.532 993.866 387.499 993.866Z" fill="black" fill-opacity="0.42"/>
<path fill-rule="evenodd" clip-rule="evenodd" d="M450.866 0.0049C446.834 0.0049 443.564 3.2739 443.564 7.3069C443.564 11.3389 446.834 14.6089 450.866 14.6089C454.899 14.6089 458.168 11.3389 458.168 7.3069C458.168 3.2739 454.899 0.0049 450.866 0.0049Z" fill="black" fill-opacity="0.42"/>
<path fill-rule="evenodd" clip-rule="evenodd" d="M450.866 63.3711C446.834 63.3711 443.564 66.6401 443.564 70.6731C443.564 74.7051 446.834 77.9751 450.866 77.9751C454.899 77.9751 458.168 74.7051 458.168 70.6731C458.168 66.6401 454.899 63.3711 450.866 63.3711Z" fill="black" fill-opacity="0.42"/>
<path fill-rule="evenodd" clip-rule="evenodd" d="M450.866 126.737C446.834 126.737 443.564 130.006 443.564 134.039C443.564 138.072 446.834 141.341 450.866 141.341C454.899 141.341 458.168 138.072 458.168 134.039C458.168 130.006 454.899 126.737 450.866 126.737Z" fill="black" fill-opacity="0.42"/>
<path fill-rule="evenodd" clip-rule="evenodd" d="M450.866 190.104C446.834 190.104 443.564 193.374 443.564 197.406C443.564 201.439 446.834 204.708 450.866 204.708C454.899 204.708 458.168 201.439 458.168 197.406C458.168 193.374 454.899 190.104 450.866 190.104Z" fill="black" fill-opacity="0.42"/>
<path fill-rule="evenodd" clip-rule="evenodd" d="M450.866 253.47C446.834 253.47 443.564 256.739 443.564 260.772C443.564 264.804 446.834 268.074 450.866 268.074C454.899 268.074 458.168 264.804 458.168 260.772C458.168 256.739 454.899 253.47 450.866 253.47Z" fill="black" fill-opacity="0.42"/>
<path fill-rule="evenodd" clip-rule="evenodd" d="M450.866 316.836C446.834 316.836 443.564 320.106 443.564 324.138C443.564 328.171 446.834 331.44 450.866 331.44C454.899 331.44 458.168 328.171 458.168 324.138C458.168 320.106 454.899 316.836 450.866 316.836Z" fill="black" fill-opacity="0.42"/>
<path fill-rule="evenodd" clip-rule="evenodd" d="M450.866 380.203C446.834 380.203 443.564 383.473 443.564 387.505C443.564 391.538 446.834 394.807 450.866 394.807C454.899 394.807 458.168 391.538 458.168 387.505C458.168 383.473 454.899 380.203 450.866 380.203Z" fill="black" fill-opacity="0.42"/>
<path fill-rule="evenodd" clip-rule="evenodd" d="M450.866 443.569C446.834 443.569 443.564 446.839 443.564 450.871C443.564 454.904 446.834 458.173 450.866 458.173C454.899 458.173 458.168 454.904 458.168 450.871C458.168 446.839 454.899 443.569 450.866 443.569Z" fill="black" fill-opacity="0.42"/>
<path fill-rule="evenodd" clip-rule="evenodd" d="M450.866 506.935C446.834 506.935 443.564 510.205 443.564 514.238C443.564 518.27 446.834 521.539 450.866 521.539C454.899 521.539 458.168 518.27 458.168 514.238C458.168 510.205 454.899 506.935 450.866 506.935Z" fill="black" fill-opacity="0.42"/>
<path fill-rule="evenodd" clip-rule="evenodd" d="M450.866 570.301C446.834 570.301 443.564 573.571 443.564 577.604C443.564 581.636 446.834 584.905 450.866 584.905C454.899 584.905 458.168 581.636 458.168 577.604C458.168 573.571 454.899 570.301 450.866 570.301Z" fill="black" fill-opacity="0.42"/>
<path fill-rule="evenodd" clip-rule="evenodd" d="M450.866 633.669C446.834 633.669 443.564 636.938 443.564 640.971C443.564 645.003 446.834 648.273 450.866 648.273C454.899 648.273 458.168 645.003 458.168 640.971C458.168 636.938 454.899 633.669 450.866 633.669Z" fill="black" fill-opacity="0.42"/>
<path fill-rule="evenodd" clip-rule="evenodd" d="M450.866 697.035C446.834 697.035 443.564 700.304 443.564 704.337C443.564 708.369 446.834 711.639 450.866 711.639C454.899 711.639 458.168 708.369 458.168 704.337C458.168 700.304 454.899 697.035 450.866 697.035Z" fill="black" fill-opacity="0.42"/>
<path fill-rule="evenodd" clip-rule="evenodd" d="M450.866 760.401C446.834 760.401 443.564 763.67 443.564 767.703C443.564 771.736 446.834 775.005 450.866 775.005C454.899 775.005 458.168 771.736 458.168 767.703C458.168 763.67 454.899 760.401 450.866 760.401Z" fill="black" fill-opacity="0.42"/>
<path fill-rule="evenodd" clip-rule="evenodd" d="M450.866 823.767C446.834 823.767 443.564 827.037 443.564 831.069C443.564 835.102 446.834 838.371 450.866 838.371C454.899 838.371 458.168 835.102 458.168 831.069C458.168 827.037 454.899 823.767 450.866 823.767Z" fill="black" fill-opacity="0.42"/>
<path fill-rule="evenodd" clip-rule="evenodd" d="M450.866 887.133C446.834 887.133 443.564 890.403 443.564 894.435C443.564 898.468 446.834 901.737 450.866 901.737C454.899 901.737 458.168 898.468 458.168 894.435C458.168 890.403 454.899 887.133 450.866 887.133Z" fill="black" fill-opacity="0.42"/>
<path fill-rule="evenodd" clip-rule="evenodd" d="M450.866 940.5C446.834 940.5 443.564 943.77 443.564 947.802C443.564 951.835 446.834 955.104 450.866 955.104C454.899 955.104 458.168 951.835 458.168 947.802C458.168 943.77 454.899 940.5 450.866 940.5Z" fill="black" fill-opacity="0.42"/>
<path fill-rule="evenodd" clip-rule="evenodd" d="M450.866 993.866C446.834 993.866 443.564 997.136 443.564 1001.17C443.564 1005.2 446.834 1008.47 450.866 1008.47C454.899 1008.47 458.168 1005.2 458.168 1001.17C458.168 997.136 454.899 993.866 450.866 993.866Z" fill="black" fill-opacity="0.42"/>
<path fill-rule="evenodd" clip-rule="evenodd" d="M514.232 0.0049C510.2 0.0049 506.93 3.2739 506.93 7.3069C506.93 11.3389 510.2 14.6089 514.232 14.6089C518.265 14.6089 521.534 11.3389 521.534 7.3069C521.534 3.2739 518.265 0.0049 514.232 0.0049Z" fill="black" fill-opacity="0.42"/>
<path fill-rule="evenodd" clip-rule="evenodd" d="M514.232 63.3711C510.2 63.3711 506.93 66.6401 506.93 70.6731C506.93 74.7051 510.2 77.9751 514.232 77.9751C518.265 77.9751 521.534 74.7051 521.534 70.6731C521.534 66.6401 518.265 63.3711 514.232 63.3711Z" fill="black" fill-opacity="0.42"/>
<path fill-rule="evenodd" clip-rule="evenodd" d="M514.232 126.737C510.2 126.737 506.93 130.006 506.93 134.039C506.93 138.072 510.2 141.341 514.232 141.341C518.265 141.341 521.534 138.072 521.534 134.039C521.534 130.006 518.265 126.737 514.232 126.737Z" fill="black" fill-opacity="0.42"/>
<path fill-rule="evenodd" clip-rule="evenodd" d="M514.232 190.104C510.2 190.104 506.93 193.374 506.93 197.406C506.93 201.439 510.2 204.708 514.232 204.708C518.265 204.708 521.534 201.439 521.534 197.406C521.534 193.374 518.265 190.104 514.232 190.104Z" fill="black" fill-opacity="0.42"/>
<path fill-rule="evenodd" clip-rule="evenodd" d="M514.232 253.47C510.2 253.47 506.93 256.739 506.93 260.772C506.93 264.804 510.2 268.074 514.232 268.074C518.265 268.074 521.534 264.804 521.534 260.772C521.534 256.739 518.265 253.47 514.232 253.47Z" fill="black" fill-opacity="0.42"/>
<path fill-rule="evenodd" clip-rule="evenodd" d="M514.232 316.836C510.2 316.836 506.93 320.106 506.93 324.138C506.93 328.171 510.2 331.44 514.232 331.44C518.265 331.44 521.534 328.171 521.534 324.138C521.534 320.106 518.265 316.836 514.232 316.836Z" fill="black" fill-opacity="0.42"/>
<path fill-rule="evenodd" clip-rule="evenodd" d="M514.232 380.203C510.2 380.203 506.93 383.473 506.93 387.505C506.93 391.538 510.2 394.807 514.232 394.807C518.265 394.807 521.534 391.538 521.534 387.505C521.534 383.473 518.265 380.203 514.232 380.203Z" fill="black" fill-opacity="0.42"/>
<path fill-rule="evenodd" clip-rule="evenodd" d="M514.232 443.569C510.2 443.569 506.93 446.839 506.93 450.871C506.93 454.904 510.2 458.173 514.232 458.173C518.265 458.173 521.534 454.904 521.534 450.871C521.534 446.839 518.265 443.569 514.232 443.569Z" fill="black" fill-opacity="0.42"/>
<path fill-rule="evenodd" clip-rule="evenodd" d="M514.232 506.935C510.2 506.935 506.93 510.205 506.93 514.238C506.93 518.27 510.2 521.539 514.232 521.539C518.265 521.539 521.534 518.27 521.534 514.238C521.534 510.205 518.265 506.935 514.232 506.935Z" fill="black" fill-opacity="0.42"/>
<path fill-rule="evenodd" clip-rule="evenodd" d="M514.232 570.301C510.2 570.301 506.93 573.571 506.93 577.604C506.93 581.636 510.2 584.905 514.232 584.905C518.265 584.905 521.534 581.636 521.534 577.604C521.534 573.571 518.265 570.301 514.232 570.301Z" fill="black" fill-opacity="0.42"/>
<path fill-rule="evenodd" clip-rule="evenodd" d="M514.232 633.669C510.2 633.669 506.93 636.938 506.93 640.971C506.93 645.003 510.2 648.273 514.232 648.273C518.265 648.273 521.534 645.003 521.534 640.971C521.534 636.938 518.265 633.669 514.232 633.669Z" fill="black" fill-opacity="0.42"/>
<path fill-rule="evenodd" clip-rule="evenodd" d="M514.232 697.035C510.2 697.035 506.93 700.304 506.93 704.337C506.93 708.369 510.2 711.639 514.232 711.639C518.265 711.639 521.534 708.369 521.534 704.337C521.534 700.304 518.265 697.035 514.232 697.035Z" fill="black" fill-opacity="0.42"/>
<path fill-rule="evenodd" clip-rule="evenodd" d="M514.232 760.401C510.2 760.401 506.93 763.67 506.93 767.703C506.93 771.736 510.2 775.005 514.232 775.005C518.265 775.005 521.534 771.736 521.534 767.703C521.534 763.67 518.265 760.401 514.232 760.401Z" fill="black" fill-opacity="0.42"/>
<path fill-rule="evenodd" clip-rule="evenodd" d="M514.232 823.767C510.2 823.767 506.93 827.037 506.93 831.069C506.93 835.102 510.2 838.371 514.232 838.371C518.265 838.371 521.534 835.102 521.534 831.069C521.534 827.037 518.265 823.767 514.232 823.767Z" fill="black" fill-opacity="0.42"/>
<path fill-rule="evenodd" clip-rule="evenodd" d="M514.232 887.133C510.2 887.133 506.93 890.403 506.93 894.435C506.93 898.468 510.2 901.737 514.232 901.737C518.265 901.737 521.534 898.468 521.534 894.435C521.534 890.403 518.265 887.133 514.232 887.133Z" fill="black" fill-opacity="0.42"/>
<path fill-rule="evenodd" clip-rule="evenodd" d="M514.232 940.5C510.2 940.5 506.93 943.77 506.93 947.802C506.93 951.835 510.2 955.104 514.232 955.104C518.265 955.104 521.534 951.835 521.534 947.802C521.534 943.77 518.265 940.5 514.232 940.5Z" fill="black" fill-opacity="0.42"/>
<path fill-rule="evenodd" clip-rule="evenodd" d="M514.232 993.866C510.2 993.866 506.93 997.136 506.93 1001.17C506.93 1005.2 510.2 1008.47 514.232 1008.47C518.265 1008.47 521.534 1005.2 521.534 1001.17C521.534 997.136 518.265 993.866 514.232 993.866Z" fill="black" fill-opacity="0.42"/>
<path fill-rule="evenodd" clip-rule="evenodd" d="M577.599 0.0049C573.567 0.0049 570.297 3.2739 570.297 7.3069C570.297 11.3389 573.567 14.6089 577.599 14.6089C581.632 14.6089 584.902 11.3389 584.902 7.3069C584.902 3.2739 581.632 0.0049 577.599 0.0049Z" fill="black" fill-opacity="0.42"/>
<path fill-rule="evenodd" clip-rule="evenodd" d="M577.599 63.3711C573.567 63.3711 570.297 66.6401 570.297 70.6731C570.297 74.7051 573.567 77.9751 577.599 77.9751C581.632 77.9751 584.902 74.7051 584.902 70.6731C584.902 66.6401 581.632 63.3711 577.599 63.3711Z" fill="black" fill-opacity="0.42"/>
<path fill-rule="evenodd" clip-rule="evenodd" d="M577.599 126.737C573.567 126.737 570.297 130.006 570.297 134.039C570.297 138.072 573.567 141.341 577.599 141.341C581.632 141.341 584.902 138.072 584.902 134.039C584.902 130.006 581.632 126.737 577.599 126.737Z" fill="black" fill-opacity="0.42"/>
<path fill-rule="evenodd" clip-rule="evenodd" d="M577.599 190.104C573.567 190.104 570.297 193.374 570.297 197.406C570.297 201.439 573.567 204.708 577.599 204.708C581.632 204.708 584.902 201.439 584.902 197.406C584.902 193.374 581.632 190.104 577.599 190.104Z" fill="black" fill-opacity="0.42"/>
<path fill-rule="evenodd" clip-rule="evenodd" d="M577.599 253.47C573.567 253.47 570.297 256.739 570.297 260.772C570.297 264.804 573.567 268.074 577.599 268.074C581.632 268.074 584.902 264.804 584.902 260.772C584.902 256.739 581.632 253.47 577.599 253.47Z" fill="black" fill-opacity="0.42"/>
<path fill-rule="evenodd" clip-rule="evenodd" d="M577.599 316.836C573.567 316.836 570.297 320.106 570.297 324.138C570.297 328.171 573.567 331.44 577.599 331.44C581.632 331.44 584.902 328.171 584.902 324.138C584.902 320.106 581.632 316.836 577.599 316.836Z" fill="black" fill-opacity="0.42"/>
<path fill-rule="evenodd" clip-rule="evenodd" d="M577.599 380.203C573.567 380.203 570.297 383.473 570.297 387.505C570.297 391.538 573.567 394.807 577.599 394.807C581.632 394.807 584.902 391.538 584.902 387.505C584.902 383.473 581.632 380.203 577.599 380.203Z" fill="black" fill-opacity="0.42"/>
<path fill-rule="evenodd" clip-rule="evenodd" d="M577.599 443.569C573.567 443.569 570.297 446.839 570.297 450.871C570.297 454.904 573.567 458.173 577.599 458.173C581.632 458.173 584.902 454.904 584.902 450.871C584.902 446.839 581.632 443.569 577.599 443.569Z" fill="black" fill-opacity="0.42"/>
<path fill-rule="evenodd" clip-rule="evenodd" d="M577.599 506.935C573.567 506.935 570.297 510.205 570.297 514.238C570.297 518.27 573.567 521.539 577.599 521.539C581.632 521.539 584.902 518.27 584.902 514.238C584.902 510.205 581.632 506.935 577.599 506.935Z" fill="black" fill-opacity="0.42"/>
<path fill-rule="evenodd" clip-rule="evenodd" d="M577.599 570.301C573.567 570.301 570.297 573.571 570.297 577.604C570.297 581.636 573.567 584.905 577.599 584.905C581.632 584.905 584.902 581.636 584.902 577.604C584.902 573.571 581.632 570.301 577.599 570.301Z" fill="black" fill-opacity="0.42"/>
<path fill-rule="evenodd" clip-rule="evenodd" d="M577.599 633.669C573.567 633.669 570.297 636.938 570.297 640.971C570.297 645.003 573.567 648.273 577.599 648.273C581.632 648.273 584.902 645.003 584.902 640.971C584.902 636.938 581.632 633.669 577.599 633.669Z" fill="black" fill-opacity="0.42"/>
<path fill-rule="evenodd" clip-rule="evenodd" d="M577.599 697.035C573.567 697.035 570.297 700.304 570.297 704.337C570.297 708.369 573.567 711.639 577.599 711.639C581.632 711.639 584.902 708.369 584.902 704.337C584.902 700.304 581.632 697.035 577.599 697.035Z" fill="black" fill-opacity="0.42"/>
<path fill-rule="evenodd" clip-rule="evenodd" d="M577.599 760.401C573.567 760.401 570.297 763.67 570.297 767.703C570.297 771.736 573.567 775.005 577.599 775.005C581.632 775.005 584.902 771.736 584.902 767.703C584.902 763.67 581.632 760.401 577.599 760.401Z" fill="black" fill-opacity="0.42"/>
<path fill-rule="evenodd" clip-rule="evenodd" d="M577.599 823.767C573.567 823.767 570.297 827.037 570.297 831.069C570.297 835.102 573.567 838.371 577.599 838.371C581.632 838.371 584.902 835.102 584.902 831.069C584.902 827.037 581.632 823.767 577.599 823.767Z" fill="black" fill-opacity="0.42"/>
<path fill-rule="evenodd" clip-rule="evenodd" d="M577.599 887.133C573.567 887.133 570.297 890.403 570.297 894.435C570.297 898.468 573.567 901.737 577.599 901.737C581.632 901.737 584.902 898.468 584.902 894.435C584.902 890.403 581.632 887.133 577.599 887.133Z" fill="black" fill-opacity="0.42"/>
<path fill-rule="evenodd" clip-rule="evenodd" d="M577.599 940.5C573.567 940.5 570.297 943.77 570.297 947.802C570.297 951.835 573.567 955.104 577.599 955.104C581.632 955.104 584.902 951.835 584.902 947.802C584.902 943.77 581.632 940.5 577.599 940.5Z" fill="black" fill-opacity="0.42"/>
<path fill-rule="evenodd" clip-rule="evenodd" d="M577.599 993.866C573.567 993.866 570.297 997.136 570.297 1001.17C570.297 1005.2 573.567 1008.47 577.599 1008.47C581.632 1008.47 584.902 1005.2 584.902 1001.17C584.902 997.136 581.632 993.866 577.599 993.866Z" fill="black" fill-opacity="0.42"/>
<path fill-rule="evenodd" clip-rule="evenodd" d="M640.965 0.0049C636.932 0.0049 633.662 3.2739 633.662 7.3069C633.662 11.3389 636.932 14.6089 640.965 14.6089C644.997 14.6089 648.267 11.3389 648.267 7.3069C648.267 3.2739 644.997 0.0049 640.965 0.0049Z" fill="black" fill-opacity="0.42"/>
<path fill-rule="evenodd" clip-rule="evenodd" d="M640.965 63.3711C636.932 63.3711 633.662 66.6401 633.662 70.6731C633.662 74.7051 636.932 77.9751 640.965 77.9751C644.997 77.9751 648.267 74.7051 648.267 70.6731C648.267 66.6401 644.997 63.3711 640.965 63.3711Z" fill="black" fill-opacity="0.42"/>
<path fill-rule="evenodd" clip-rule="evenodd" d="M640.965 126.737C636.932 126.737 633.662 130.006 633.662 134.039C633.662 138.072 636.932 141.341 640.965 141.341C644.997 141.341 648.267 138.072 648.267 134.039C648.267 130.006 644.997 126.737 640.965 126.737Z" fill="black" fill-opacity="0.42"/>
<path fill-rule="evenodd" clip-rule="evenodd" d="M640.965 190.104C636.932 190.104 633.662 193.374 633.662 197.406C633.662 201.439 636.932 204.708 640.965 204.708C644.997 204.708 648.267 201.439 648.267 197.406C648.267 193.374 644.997 190.104 640.965 190.104Z" fill="black" fill-opacity="0.42"/>
<path fill-rule="evenodd" clip-rule="evenodd" d="M640.965 253.47C636.932 253.47 633.662 256.739 633.662 260.772C633.662 264.804 636.932 268.074 640.965 268.074C644.997 268.074 648.267 264.804 648.267 260.772C648.267 256.739 644.997 253.47 640.965 253.47Z" fill="black" fill-opacity="0.42"/>
<path fill-rule="evenodd" clip-rule="evenodd" d="M640.965 316.836C636.932 316.836 633.662 320.106 633.662 324.138C633.662 328.171 636.932 331.44 640.965 331.44C644.997 331.44 648.267 328.171 648.267 324.138C648.267 320.106 644.997 316.836 640.965 316.836Z" fill="black" fill-opacity="0.42"/>
<path fill-rule="evenodd" clip-rule="evenodd" d="M640.965 380.203C636.932 380.203 633.662 383.473 633.662 387.505C633.662 391.538 636.932 394.807 640.965 394.807C644.997 394.807 648.267 391.538 648.267 387.505C648.267 383.473 644.997 380.203 640.965 380.203Z" fill="black" fill-opacity="0.42"/>
<path fill-rule="evenodd" clip-rule="evenodd" d="M640.965 443.569C636.932 443.569 633.662 446.839 633.662 450.871C633.662 454.904 636.932 458.173 640.965 458.173C644.997 458.173 648.267 454.904 648.267 450.871C648.267 446.839 644.997 443.569 640.965 443.569Z" fill="black" fill-opacity="0.42"/>
<path fill-rule="evenodd" clip-rule="evenodd" d="M640.965 506.935C636.932 506.935 633.662 510.205 633.662 514.238C633.662 518.27 636.932 521.539 640.965 521.539C644.997 521.539 648.267 518.27 648.267 514.238C648.267 510.205 644.997 506.935 640.965 506.935Z" fill="black" fill-opacity="0.42"/>
<path fill-rule="evenodd" clip-rule="evenodd" d="M640.965 570.301C636.932 570.301 633.662 573.571 633.662 577.604C633.662 581.636 636.932 584.905 640.965 584.905C644.997 584.905 648.267 581.636 648.267 577.604C648.267 573.571 644.997 570.301 640.965 570.301Z" fill="black" fill-opacity="0.42"/>
<path fill-rule="evenodd" clip-rule="evenodd" d="M640.965 633.669C636.932 633.669 633.662 636.938 633.662 640.971C633.662 645.003 636.932 648.273 640.965 648.273C644.997 648.273 648.267 645.003 648.267 640.971C648.267 636.938 644.997 633.669 640.965 633.669Z" fill="black" fill-opacity="0.42"/>
<path fill-rule="evenodd" clip-rule="evenodd" d="M640.965 697.035C636.932 697.035 633.662 700.304 633.662 704.337C633.662 708.369 636.932 711.639 640.965 711.639C644.997 711.639 648.267 708.369 648.267 704.337C648.267 700.304 644.997 697.035 640.965 697.035Z" fill="black" fill-opacity="0.42"/>
<path fill-rule="evenodd" clip-rule="evenodd" d="M640.965 760.401C636.932 760.401 633.662 763.67 633.662 767.703C633.662 771.736 636.932 775.005 640.965 775.005C644.997 775.005 648.267 771.736 648.267 767.703C648.267 763.67 644.997 760.401 640.965 760.401Z" fill="black" fill-opacity="0.42"/>
<path fill-rule="evenodd" clip-rule="evenodd" d="M640.965 823.767C636.932 823.767 633.662 827.037 633.662 831.069C633.662 835.102 636.932 838.371 640.965 838.371C644.997 838.371 648.267 835.102 648.267 831.069C648.267 827.037 644.997 823.767 640.965 823.767Z" fill="black" fill-opacity="0.42"/>
<path fill-rule="evenodd" clip-rule="evenodd" d="M640.965 887.133C636.932 887.133 633.662 890.403 633.662 894.435C633.662 898.468 636.932 901.737 640.965 901.737C644.997 901.737 648.267 898.468 648.267 894.435C648.267 890.403 644.997 887.133 640.965 887.133Z" fill="black" fill-opacity="0.42"/>
<path fill-rule="evenodd" clip-rule="evenodd" d="M640.965 940.5C636.932 940.5 633.662 943.77 633.662 947.802C633.662 951.835 636.932 955.104 640.965 955.104C644.997 955.104 648.267 951.835 648.267 947.802C648.267 943.77 644.997 940.5 640.965 940.5Z" fill="black" fill-opacity="0.42"/>
<path fill-rule="evenodd" clip-rule="evenodd" d="M640.965 993.866C636.932 993.866 633.662 997.136 633.662 1001.17C633.662 1005.2 636.932 1008.47 640.965 1008.47C644.997 1008.47 648.267 1005.2 648.267 1001.17C648.267 997.136 644.997 993.866 640.965 993.866Z" fill="black" fill-opacity="0.42"/>
<path fill-rule="evenodd" clip-rule="evenodd" d="M704.332 0.0049C700.299 0.0049 697.029 3.2739 697.029 7.3069C697.029 11.3389 700.299 14.6089 704.332 14.6089C708.364 14.6089 711.634 11.3389 711.634 7.3069C711.634 3.2739 708.364 0.0049 704.332 0.0049Z" fill="black" fill-opacity="0.42"/>
<path fill-rule="evenodd" clip-rule="evenodd" d="M704.332 63.3711C700.299 63.3711 697.029 66.6401 697.029 70.6731C697.029 74.7051 700.299 77.9751 704.332 77.9751C708.364 77.9751 711.634 74.7051 711.634 70.6731C711.634 66.6401 708.364 63.3711 704.332 63.3711Z" fill="black" fill-opacity="0.42"/>
<path fill-rule="evenodd" clip-rule="evenodd" d="M704.332 126.737C700.299 126.737 697.029 130.006 697.029 134.039C697.029 138.072 700.299 141.341 704.332 141.341C708.364 141.341 711.634 138.072 711.634 134.039C711.634 130.006 708.364 126.737 704.332 126.737Z" fill="black" fill-opacity="0.42"/>
<path fill-rule="evenodd" clip-rule="evenodd" d="M704.332 190.104C700.299 190.104 697.029 193.374 697.029 197.406C697.029 201.439 700.299 204.708 704.332 204.708C708.364 204.708 711.634 201.439 711.634 197.406C711.634 193.374 708.364 190.104 704.332 190.104Z" fill="black" fill-opacity="0.42"/>
<path fill-rule="evenodd" clip-rule="evenodd" d="M704.332 253.47C700.299 253.47 697.029 256.739 697.029 260.772C697.029 264.804 700.299 268.074 704.332 268.074C708.364 268.074 711.634 264.804 711.634 260.772C711.634 256.739 708.364 253.47 704.332 253.47Z" fill="black" fill-opacity="0.42"/>
<path fill-rule="evenodd" clip-rule="evenodd" d="M704.332 316.836C700.299 316.836 697.029 320.106 697.029 324.138C697.029 328.171 700.299 331.44 704.332 331.44C708.364 331.44 711.634 328.171 711.634 324.138C711.634 320.106 708.364 316.836 704.332 316.836Z" fill="black" fill-opacity="0.42"/>
<path fill-rule="evenodd" clip-rule="evenodd" d="M704.332 380.203C700.299 380.203 697.029 383.473 697.029 387.505C697.029 391.538 700.299 394.807 704.332 394.807C708.364 394.807 711.634 391.538 711.634 387.505C711.634 383.473 708.364 380.203 704.332 380.203Z" fill="black" fill-opacity="0.42"/>
<path fill-rule="evenodd" clip-rule="evenodd" d="M704.332 443.569C700.299 443.569 697.029 446.839 697.029 450.871C697.029 454.904 700.299 458.173 704.332 458.173C708.364 458.173 711.634 454.904 711.634 450.871C711.634 446.839 708.364 443.569 704.332 443.569Z" fill="black" fill-opacity="0.42"/>
<path fill-rule="evenodd" clip-rule="evenodd" d="M704.332 506.935C700.299 506.935 697.029 510.205 697.029 514.238C697.029 518.27 700.299 521.539 704.332 521.539C708.364 521.539 711.634 518.27 711.634 514.238C711.634 510.205 708.364 506.935 704.332 506.935Z" fill="black" fill-opacity="0.42"/>
<path fill-rule="evenodd" clip-rule="evenodd" d="M704.332 570.301C700.299 570.301 697.029 573.571 697.029 577.604C697.029 581.636 700.299 584.905 704.332 584.905C708.364 584.905 711.634 581.636 711.634 577.604C711.634 573.571 708.364 570.301 704.332 570.301Z" fill="black" fill-opacity="0.42"/>
<path fill-rule="evenodd" clip-rule="evenodd" d="M704.332 633.669C700.299 633.669 697.029 636.938 697.029 640.971C697.029 645.003 700.299 648.273 704.332 648.273C708.364 648.273 711.634 645.003 711.634 640.971C711.634 636.938 708.364 633.669 704.332 633.669Z" fill="black" fill-opacity="0.42"/>
<path fill-rule="evenodd" clip-rule="evenodd" d="M704.332 697.035C700.299 697.035 697.029 700.304 697.029 704.337C697.029 708.369 700.299 711.639 704.332 711.639C708.364 711.639 711.634 708.369 711.634 704.337C711.634 700.304 708.364 697.035 704.332 697.035Z" fill="black" fill-opacity="0.42"/>
<path fill-rule="evenodd" clip-rule="evenodd" d="M704.332 760.401C700.299 760.401 697.029 763.67 697.029 767.703C697.029 771.736 700.299 775.005 704.332 775.005C708.364 775.005 711.634 771.736 711.634 767.703C711.634 763.67 708.364 760.401 704.332 760.401Z" fill="black" fill-opacity="0.42"/>
<path fill-rule="evenodd" clip-rule="evenodd" d="M704.332 823.767C700.299 823.767 697.029 827.037 697.029 831.069C697.029 835.102 700.299 838.371 704.332 838.371C708.364 838.371 711.634 835.102 711.634 831.069C711.634 827.037 708.364 823.767 704.332 823.767Z" fill="black" fill-opacity="0.42"/>
<path fill-rule="evenodd" clip-rule="evenodd" d="M704.332 887.133C700.299 887.133 697.029 890.403 697.029 894.435C697.029 898.468 700.299 901.737 704.332 901.737C708.364 901.737 711.634 898.468 711.634 894.435C711.634 890.403 708.364 887.133 704.332 887.133Z" fill="black" fill-opacity="0.42"/>
<path fill-rule="evenodd" clip-rule="evenodd" d="M704.332 940.5C700.299 940.5 697.029 943.77 697.029 947.802C697.029 951.835 700.299 955.104 704.332 955.104C708.364 955.104 711.634 951.835 711.634 947.802C711.634 943.77 708.364 940.5 704.332 940.5Z" fill="black" fill-opacity="0.42"/>
<path fill-rule="evenodd" clip-rule="evenodd" d="M704.332 993.866C700.299 993.866 697.029 997.136 697.029 1001.17C697.029 1005.2 700.299 1008.47 704.332 1008.47C708.364 1008.47 711.634 1005.2 711.634 1001.17C711.634 997.136 708.364 993.866 704.332 993.866Z" fill="black" fill-opacity="0.42"/>
<path fill-rule="evenodd" clip-rule="evenodd" d="M767.698 0.0049C763.665 0.0049 760.396 3.2739 760.396 7.3069C760.396 11.3389 763.665 14.6089 767.698 14.6089C771.73 14.6089 775 11.3389 775 7.3069C775 3.2739 771.73 0.0049 767.698 0.0049Z" fill="black" fill-opacity="0.42"/>
<path fill-rule="evenodd" clip-rule="evenodd" d="M767.698 63.3711C763.665 63.3711 760.396 66.6401 760.396 70.6731C760.396 74.7051 763.665 77.9751 767.698 77.9751C771.73 77.9751 775 74.7051 775 70.6731C775 66.6401 771.73 63.3711 767.698 63.3711Z" fill="black" fill-opacity="0.42"/>
<path fill-rule="evenodd" clip-rule="evenodd" d="M767.698 126.737C763.665 126.737 760.396 130.006 760.396 134.039C760.396 138.072 763.665 141.341 767.698 141.341C771.73 141.341 775 138.072 775 134.039C775 130.006 771.73 126.737 767.698 126.737Z" fill="black" fill-opacity="0.42"/>
<path fill-rule="evenodd" clip-rule="evenodd" d="M767.698 190.104C763.665 190.104 760.396 193.374 760.396 197.406C760.396 201.439 763.665 204.708 767.698 204.708C771.73 204.708 775 201.439 775 197.406C775 193.374 771.73 190.104 767.698 190.104Z" fill="black" fill-opacity="0.42"/>
<path fill-rule="evenodd" clip-rule="evenodd" d="M767.698 253.47C763.665 253.47 760.396 256.739 760.396 260.772C760.396 264.804 763.665 268.074 767.698 268.074C771.73 268.074 775 264.804 775 260.772C775 256.739 771.73 253.47 767.698 253.47Z" fill="black" fill-opacity="0.42"/>
<path fill-rule="evenodd" clip-rule="evenodd" d="M767.698 316.836C763.665 316.836 760.396 320.106 760.396 324.138C760.396 328.171 763.665 331.44 767.698 331.44C771.73 331.44 775 328.171 775 324.138C775 320.106 771.73 316.836 767.698 316.836Z" fill="black" fill-opacity="0.42"/>
<path fill-rule="evenodd" clip-rule="evenodd" d="M767.698 380.203C763.665 380.203 760.396 383.473 760.396 387.505C760.396 391.538 763.665 394.807 767.698 394.807C771.73 394.807 775 391.538 775 387.505C775 383.473 771.73 380.203 767.698 380.203Z" fill="black" fill-opacity="0.42"/>
<path fill-rule="evenodd" clip-rule="evenodd" d="M767.698 443.569C763.665 443.569 760.396 446.839 760.396 450.871C760.396 454.904 763.665 458.173 767.698 458.173C771.73 458.173 775 454.904 775 450.871C775 446.839 771.73 443.569 767.698 443.569Z" fill="black" fill-opacity="0.42"/>
<path fill-rule="evenodd" clip-rule="evenodd" d="M767.698 506.935C763.665 506.935 760.396 510.205 760.396 514.238C760.396 518.27 763.665 521.539 767.698 521.539C771.73 521.539 775 518.27 775 514.238C775 510.205 771.73 506.935 767.698 506.935Z" fill="black" fill-opacity="0.42"/>
<path fill-rule="evenodd" clip-rule="evenodd" d="M767.698 570.301C763.665 570.301 760.396 573.571 760.396 577.604C760.396 581.636 763.665 584.905 767.698 584.905C771.73 584.905 775 581.636 775 577.604C775 573.571 771.73 570.301 767.698 570.301Z" fill="black" fill-opacity="0.42"/>
<path fill-rule="evenodd" clip-rule="evenodd" d="M767.698 633.669C763.665 633.669 760.396 636.938 760.396 640.971C760.396 645.003 763.665 648.273 767.698 648.273C771.73 648.273 775 645.003 775 640.971C775 636.938 771.73 633.669 767.698 633.669Z" fill="black" fill-opacity="0.42"/>
<path fill-rule="evenodd" clip-rule="evenodd" d="M767.698 697.035C763.665 697.035 760.396 700.304 760.396 704.337C760.396 708.369 763.665 711.639 767.698 711.639C771.73 711.639 775 708.369 775 704.337C775 700.304 771.73 697.035 767.698 697.035Z" fill="black" fill-opacity="0.42"/>
<path fill-rule="evenodd" clip-rule="evenodd" d="M767.698 760.401C763.665 760.401 760.396 763.67 760.396 767.703C760.396 771.736 763.665 775.005 767.698 775.005C771.73 775.005 775 771.736 775 767.703C775 763.67 771.73 760.401 767.698 760.401Z" fill="black" fill-opacity="0.42"/>
<path fill-rule="evenodd" clip-rule="evenodd" d="M767.698 823.767C763.665 823.767 760.396 827.037 760.396 831.069C760.396 835.102 763.665 838.371 767.698 838.371C771.73 838.371 775 835.102 775 831.069C775 827.037 771.73 823.767 767.698 823.767Z" fill="black" fill-opacity="0.42"/>
<path fill-rule="evenodd" clip-rule="evenodd" d="M767.698 887.133C763.665 887.133 760.396 890.403 760.396 894.435C760.396 898.468 763.665 901.737 767.698 901.737C771.73 901.737 775 898.468 775 894.435C775 890.403 771.73 887.133 767.698 887.133Z" fill="black" fill-opacity="0.42"/>
<path fill-rule="evenodd" clip-rule="evenodd" d="M767.698 940.5C763.665 940.5 760.396 943.77 760.396 947.802C760.396 951.835 763.665 955.104 767.698 955.104C771.73 955.104 775 951.835 775 947.802C775 943.77 771.73 940.5 767.698 940.5Z" fill="black" fill-opacity="0.42"/>
<path fill-rule="evenodd" clip-rule="evenodd" d="M767.698 993.866C763.665 993.866 760.396 997.136 760.396 1001.17C760.396 1005.2 763.665 1008.47 767.698 1008.47C771.73 1008.47 775 1005.2 775 1001.17C775 997.136 771.73 993.866 767.698 993.866Z" fill="black" fill-opacity="0.42"/>
</svg>
