<svg width="1213" height="1805" viewBox="0 0 1213 1805" fill="none" xmlns="http://www.w3.org/2000/svg">
<rect opacity="0.75" x="0.681152" y="873.094" width="1800" height="1065" rx="532.5" transform="rotate(-29 0.681152 873.094)" fill="url(#paint0_linear_177_520)"/>
<circle cx="750" cy="1074" r="720.5" stroke="#03A9F4"/>
<path d="M564.559 769.416H579.158C578.865 774.201 577.547 778.449 575.203 782.16C572.892 785.871 569.653 788.768 565.486 790.852C561.352 792.935 556.372 793.977 550.545 793.977C545.988 793.977 541.902 793.195 538.289 791.633C534.676 790.038 531.583 787.759 529.012 784.797C526.473 781.835 524.536 778.254 523.201 774.055C521.867 769.855 521.199 765.152 521.199 759.943V755.012C521.199 749.803 521.883 745.1 523.25 740.9C524.65 736.669 526.635 733.072 529.207 730.109C531.811 727.147 534.92 724.868 538.533 723.273C542.146 721.678 546.183 720.881 550.643 720.881C556.567 720.881 561.564 721.955 565.633 724.104C569.734 726.252 572.908 729.214 575.154 732.99C577.433 736.766 578.8 741.063 579.256 745.881H564.607C564.445 743.016 563.875 740.591 562.898 738.605C561.922 736.587 560.441 735.074 558.455 734.064C556.502 733.023 553.898 732.502 550.643 732.502C548.201 732.502 546.069 732.958 544.246 733.869C542.423 734.781 540.893 736.164 539.656 738.02C538.419 739.875 537.492 742.219 536.873 745.051C536.287 747.85 535.994 751.138 535.994 754.914V759.943C535.994 763.622 536.271 766.861 536.824 769.66C537.378 772.427 538.224 774.771 539.363 776.691C540.535 778.579 542.033 780.012 543.855 780.988C545.711 781.932 547.941 782.404 550.545 782.404C553.605 782.404 556.128 781.916 558.113 780.939C560.099 779.963 561.613 778.514 562.654 776.594C563.729 774.673 564.363 772.281 564.559 769.416ZM602.742 718V793H588.631V718H602.742ZM629.207 740.168V793H615.096V740.168H629.207ZM614.217 726.398C614.217 724.348 614.933 722.655 616.365 721.32C617.798 719.986 619.718 719.318 622.127 719.318C624.503 719.318 626.408 719.986 627.84 721.32C629.305 722.655 630.037 724.348 630.037 726.398C630.037 728.449 629.305 730.142 627.84 731.477C626.408 732.811 624.503 733.479 622.127 733.479C619.718 733.479 617.798 732.811 616.365 731.477C614.933 730.142 614.217 728.449 614.217 726.398ZM654.598 751.447V793H640.535V740.168H653.719L654.598 751.447ZM652.547 764.729H648.738C648.738 760.822 649.243 757.307 650.252 754.182C651.261 751.024 652.677 748.339 654.5 746.125C656.323 743.879 658.488 742.17 660.994 740.998C663.533 739.794 666.365 739.191 669.49 739.191C671.964 739.191 674.227 739.549 676.277 740.266C678.328 740.982 680.086 742.121 681.551 743.684C683.048 745.246 684.188 747.313 684.969 749.885C685.783 752.456 686.189 755.598 686.189 759.309V793H672.029V759.26C672.029 756.916 671.704 755.093 671.053 753.791C670.402 752.489 669.441 751.577 668.172 751.057C666.935 750.503 665.405 750.227 663.582 750.227C661.694 750.227 660.05 750.601 658.65 751.35C657.283 752.098 656.144 753.14 655.232 754.475C654.354 755.777 653.686 757.307 653.23 759.064C652.775 760.822 652.547 762.71 652.547 764.729ZM711.727 740.168V793H697.615V740.168H711.727ZM696.736 726.398C696.736 724.348 697.452 722.655 698.885 721.32C700.317 719.986 702.238 719.318 704.646 719.318C707.023 719.318 708.927 719.986 710.359 721.32C711.824 722.655 712.557 724.348 712.557 726.398C712.557 728.449 711.824 730.142 710.359 731.477C708.927 732.811 707.023 733.479 704.646 733.479C702.238 733.479 700.317 732.811 698.885 731.477C697.452 730.142 696.736 728.449 696.736 726.398ZM745.174 782.99C746.899 782.99 748.429 782.665 749.764 782.014C751.098 781.33 752.14 780.386 752.889 779.182C753.67 777.945 754.077 776.496 754.109 774.836H767.342C767.309 778.547 766.316 781.851 764.363 784.748C762.41 787.613 759.79 789.875 756.502 791.535C753.214 793.163 749.536 793.977 745.467 793.977C741.365 793.977 737.785 793.293 734.725 791.926C731.697 790.559 729.174 788.671 727.156 786.262C725.138 783.82 723.624 780.988 722.615 777.766C721.606 774.51 721.102 771.027 721.102 767.316V765.9C721.102 762.157 721.606 758.674 722.615 755.451C723.624 752.196 725.138 749.364 727.156 746.955C729.174 744.514 731.697 742.609 734.725 741.242C737.752 739.875 741.3 739.191 745.369 739.191C749.699 739.191 753.491 740.021 756.746 741.682C760.034 743.342 762.605 745.718 764.461 748.811C766.349 751.87 767.309 755.5 767.342 759.699H754.109C754.077 757.941 753.702 756.346 752.986 754.914C752.303 753.482 751.294 752.342 749.959 751.496C748.657 750.617 747.046 750.178 745.125 750.178C743.074 750.178 741.398 750.617 740.096 751.496C738.794 752.342 737.785 753.514 737.068 755.012C736.352 756.477 735.848 758.153 735.555 760.041C735.294 761.896 735.164 763.85 735.164 765.9V767.316C735.164 769.367 735.294 771.337 735.555 773.225C735.815 775.113 736.303 776.789 737.02 778.254C737.768 779.719 738.794 780.874 740.096 781.721C741.398 782.567 743.09 782.99 745.174 782.99ZM560.359 901.396C560.359 900.127 560.164 898.988 559.773 897.979C559.415 896.937 558.732 895.993 557.723 895.146C556.714 894.268 555.298 893.405 553.475 892.559C551.652 891.712 549.292 890.833 546.395 889.922C543.172 888.88 540.112 887.708 537.215 886.406C534.35 885.104 531.811 883.59 529.598 881.865C527.417 880.107 525.691 878.073 524.422 875.762C523.185 873.451 522.566 870.765 522.566 867.705C522.566 864.743 523.217 862.057 524.52 859.648C525.822 857.207 527.645 855.124 529.988 853.398C532.332 851.641 535.099 850.29 538.289 849.346C541.512 848.402 545.044 847.93 548.885 847.93C554.126 847.93 558.699 848.874 562.605 850.762C566.512 852.65 569.539 855.238 571.688 858.525C573.868 861.813 574.959 865.573 574.959 869.805H560.408C560.408 867.721 559.969 865.898 559.09 864.336C558.243 862.741 556.941 861.488 555.184 860.576C553.458 859.665 551.277 859.209 548.641 859.209C546.102 859.209 543.986 859.6 542.293 860.381C540.6 861.13 539.331 862.155 538.484 863.457C537.638 864.727 537.215 866.159 537.215 867.754C537.215 868.958 537.508 870.049 538.094 871.025C538.712 872.002 539.624 872.913 540.828 873.76C542.033 874.606 543.514 875.404 545.271 876.152C547.029 876.901 549.064 877.633 551.375 878.35C555.249 879.521 558.65 880.84 561.58 882.305C564.542 883.77 567.016 885.413 569.002 887.236C570.988 889.059 572.485 891.126 573.494 893.438C574.503 895.749 575.008 898.369 575.008 901.299C575.008 904.391 574.406 907.158 573.201 909.6C571.997 912.041 570.255 914.108 567.977 915.801C565.698 917.493 562.98 918.779 559.822 919.658C556.665 920.537 553.133 920.977 549.227 920.977C545.711 920.977 542.244 920.521 538.826 919.609C535.408 918.665 532.299 917.249 529.5 915.361C526.733 913.473 524.52 911.064 522.859 908.135C521.199 905.205 520.369 901.738 520.369 897.734H535.066C535.066 899.948 535.408 901.82 536.092 903.35C536.775 904.88 537.736 906.117 538.973 907.061C540.242 908.005 541.74 908.688 543.465 909.111C545.223 909.535 547.143 909.746 549.227 909.746C551.766 909.746 553.849 909.388 555.477 908.672C557.137 907.956 558.357 906.963 559.139 905.693C559.952 904.424 560.359 902.992 560.359 901.396ZM608.406 920.977C604.305 920.977 600.626 920.326 597.371 919.023C594.116 917.689 591.349 915.85 589.07 913.506C586.824 911.162 585.099 908.444 583.895 905.352C582.69 902.227 582.088 898.906 582.088 895.391V893.438C582.088 889.434 582.658 885.771 583.797 882.451C584.936 879.131 586.564 876.25 588.68 873.809C590.828 871.367 593.432 869.495 596.492 868.193C599.552 866.859 603.003 866.191 606.844 866.191C610.587 866.191 613.908 866.81 616.805 868.047C619.702 869.284 622.127 871.042 624.08 873.32C626.066 875.599 627.563 878.333 628.572 881.523C629.581 884.681 630.086 888.197 630.086 892.07V897.93H588.094V888.555H616.268V887.48C616.268 885.527 615.91 883.786 615.193 882.256C614.51 880.693 613.468 879.456 612.068 878.545C610.669 877.633 608.878 877.178 606.697 877.178C604.842 877.178 603.247 877.585 601.912 878.398C600.577 879.212 599.487 880.352 598.641 881.816C597.827 883.281 597.208 885.007 596.785 886.992C596.395 888.945 596.199 891.094 596.199 893.438V895.391C596.199 897.507 596.492 899.46 597.078 901.25C597.697 903.04 598.559 904.587 599.666 905.889C600.805 907.191 602.173 908.2 603.768 908.916C605.395 909.632 607.234 909.99 609.285 909.99C611.824 909.99 614.184 909.502 616.365 908.525C618.579 907.516 620.483 906.003 622.078 903.984L628.914 911.406C627.807 913.001 626.294 914.531 624.373 915.996C622.485 917.461 620.206 918.665 617.537 919.609C614.868 920.521 611.824 920.977 608.406 920.977ZM652.156 878.691V920H638.094V867.168H651.326L652.156 878.691ZM668.074 866.826L667.83 879.863C667.146 879.766 666.316 879.684 665.34 879.619C664.396 879.521 663.533 879.473 662.752 879.473C660.766 879.473 659.041 879.733 657.576 880.254C656.144 880.742 654.939 881.475 653.963 882.451C653.019 883.428 652.303 884.616 651.814 886.016C651.359 887.415 651.098 889.01 651.033 890.801L648.201 889.922C648.201 886.504 648.543 883.363 649.227 880.498C649.91 877.601 650.903 875.078 652.205 872.93C653.54 870.781 655.167 869.121 657.088 867.949C659.008 866.777 661.206 866.191 663.68 866.191C664.461 866.191 665.258 866.257 666.072 866.387C666.886 866.484 667.553 866.631 668.074 866.826ZM693.562 909.746L705.281 867.168H719.979L702.156 920H693.27L693.562 909.746ZM685.506 867.168L697.273 909.795L697.518 920H688.582L670.76 867.168H685.506ZM741.121 867.168V920H727.01V867.168H741.121ZM726.131 853.398C726.131 851.348 726.847 849.655 728.279 848.32C729.712 846.986 731.632 846.318 734.041 846.318C736.417 846.318 738.322 846.986 739.754 848.32C741.219 849.655 741.951 851.348 741.951 853.398C741.951 855.449 741.219 857.142 739.754 858.477C738.322 859.811 736.417 860.479 734.041 860.479C731.632 860.479 729.712 859.811 728.279 858.477C726.847 857.142 726.131 855.449 726.131 853.398ZM774.568 909.99C776.294 909.99 777.824 909.665 779.158 909.014C780.493 908.33 781.535 907.386 782.283 906.182C783.064 904.945 783.471 903.496 783.504 901.836H796.736C796.704 905.547 795.711 908.851 793.758 911.748C791.805 914.613 789.184 916.875 785.896 918.535C782.609 920.163 778.93 920.977 774.861 920.977C770.76 920.977 767.179 920.293 764.119 918.926C761.092 917.559 758.569 915.671 756.551 913.262C754.533 910.82 753.019 907.988 752.01 904.766C751.001 901.51 750.496 898.027 750.496 894.316V892.9C750.496 889.157 751.001 885.674 752.01 882.451C753.019 879.196 754.533 876.364 756.551 873.955C758.569 871.514 761.092 869.609 764.119 868.242C767.146 866.875 770.695 866.191 774.764 866.191C779.093 866.191 782.885 867.021 786.141 868.682C789.428 870.342 792 872.718 793.855 875.811C795.743 878.87 796.704 882.5 796.736 886.699H783.504C783.471 884.941 783.097 883.346 782.381 881.914C781.697 880.482 780.688 879.342 779.354 878.496C778.051 877.617 776.44 877.178 774.52 877.178C772.469 877.178 770.792 877.617 769.49 878.496C768.188 879.342 767.179 880.514 766.463 882.012C765.747 883.477 765.242 885.153 764.949 887.041C764.689 888.896 764.559 890.85 764.559 892.9V894.316C764.559 896.367 764.689 898.337 764.949 900.225C765.21 902.113 765.698 903.789 766.414 905.254C767.163 906.719 768.188 907.874 769.49 908.721C770.792 909.567 772.485 909.99 774.568 909.99ZM829.207 920.977C825.105 920.977 821.427 920.326 818.172 919.023C814.917 917.689 812.15 915.85 809.871 913.506C807.625 911.162 805.9 908.444 804.695 905.352C803.491 902.227 802.889 898.906 802.889 895.391V893.438C802.889 889.434 803.458 885.771 804.598 882.451C805.737 879.131 807.365 876.25 809.48 873.809C811.629 871.367 814.233 869.495 817.293 868.193C820.353 866.859 823.803 866.191 827.645 866.191C831.388 866.191 834.708 866.81 837.605 868.047C840.503 869.284 842.928 871.042 844.881 873.32C846.867 875.599 848.364 878.333 849.373 881.523C850.382 884.681 850.887 888.197 850.887 892.07V897.93H808.895V888.555H837.068V887.48C837.068 885.527 836.71 883.786 835.994 882.256C835.311 880.693 834.269 879.456 832.869 878.545C831.469 877.633 829.679 877.178 827.498 877.178C825.643 877.178 824.048 877.585 822.713 878.398C821.378 879.212 820.288 880.352 819.441 881.816C818.628 883.281 818.009 885.007 817.586 886.992C817.195 888.945 817 891.094 817 893.438V895.391C817 897.507 817.293 899.46 817.879 901.25C818.497 903.04 819.36 904.587 820.467 905.889C821.606 907.191 822.973 908.2 824.568 908.916C826.196 909.632 828.035 909.99 830.086 909.99C832.625 909.99 834.985 909.502 837.166 908.525C839.38 907.516 841.284 906.003 842.879 903.984L849.715 911.406C848.608 913.001 847.094 914.531 845.174 915.996C843.286 917.461 841.007 918.665 838.338 919.609C835.669 920.521 832.625 920.977 829.207 920.977ZM887.459 905.4C887.459 904.391 887.166 903.48 886.58 902.666C885.994 901.852 884.904 901.104 883.309 900.42C881.746 899.704 879.484 899.053 876.521 898.467C873.852 897.881 871.362 897.148 869.051 896.27C866.772 895.358 864.786 894.268 863.094 892.998C861.434 891.729 860.132 890.231 859.188 888.506C858.243 886.748 857.771 884.746 857.771 882.5C857.771 880.286 858.243 878.203 859.188 876.25C860.164 874.297 861.548 872.572 863.338 871.074C865.161 869.544 867.374 868.356 869.979 867.51C872.615 866.631 875.577 866.191 878.865 866.191C883.455 866.191 887.394 866.924 890.682 868.389C894.002 869.854 896.541 871.872 898.299 874.443C900.089 876.982 900.984 879.88 900.984 883.135H886.922C886.922 881.768 886.629 880.547 886.043 879.473C885.49 878.366 884.611 877.503 883.406 876.885C882.234 876.234 880.704 875.908 878.816 875.908C877.254 875.908 875.903 876.185 874.764 876.738C873.624 877.259 872.745 877.975 872.127 878.887C871.541 879.766 871.248 880.742 871.248 881.816C871.248 882.63 871.411 883.363 871.736 884.014C872.094 884.632 872.664 885.202 873.445 885.723C874.227 886.243 875.236 886.732 876.473 887.188C877.742 887.611 879.305 888.001 881.16 888.359C884.969 889.141 888.37 890.166 891.365 891.436C894.36 892.673 896.736 894.365 898.494 896.514C900.252 898.63 901.131 901.413 901.131 904.863C901.131 907.207 900.61 909.355 899.568 911.309C898.527 913.262 897.029 914.971 895.076 916.436C893.123 917.868 890.779 918.991 888.045 919.805C885.343 920.586 882.299 920.977 878.914 920.977C873.999 920.977 869.832 920.098 866.414 918.34C863.029 916.582 860.457 914.352 858.699 911.65C856.974 908.916 856.111 906.117 856.111 903.252H869.441C869.507 905.173 869.995 906.719 870.906 907.891C871.85 909.062 873.038 909.909 874.471 910.43C875.936 910.951 877.514 911.211 879.207 911.211C881.03 911.211 882.544 910.967 883.748 910.479C884.952 909.958 885.864 909.274 886.482 908.428C887.133 907.549 887.459 906.54 887.459 905.4Z" fill="#01579B"/>
<path fill-rule="evenodd" clip-rule="evenodd" d="M517 493.25V650H673.698V493.25H517V493.25Z" stroke="#03A9F4" stroke-width="4"/>
<path fill-rule="evenodd" clip-rule="evenodd" d="M558.25 452V485H682V608.75H715V452H558.25Z" stroke="#03A9F4" stroke-width="4"/>
<defs>
<linearGradient id="paint0_linear_177_520" x1="-407.198" y1="1270.9" x2="129.721" y2="2528.81" gradientUnits="userSpaceOnUse">
<stop stop-color="#B3E5FC"/>
<stop offset="1" stop-color="#C8E6C9"/>
</linearGradient>
</defs>
</svg>
